<svg xmlns="http://www.w3.org/2000/svg" width="568" height="568" viewBox="0 0 568 568">
<style>
.title{font:700 22px sans-serif;fill:#111827;}
.subtitle{font:400 12px sans-serif;fill:#4b5563;}
.axis{font:400 11px sans-serif;fill:#111827;}
.celltext{font:400 10px sans-serif;fill:#111827;}
.foot{font:400 11px sans-serif;fill:#4b5563;}
.grid{stroke:#d1d5db;stroke-width:1;}
</style>
<rect width="100%" height="100%" fill="#ffffff"/>
<text x="24" y="34" class="title">Identity-based hateful narratives set-aware confusion matrix</text>
<text x="24" y="56" class="subtitle">Diagonal = shared labels; off-diagonal = non-overlapping labels; [NONE] = empty set / NA.</text>
<text x="24" y="544" class="foot">Built from 136 unordered rater pairs. Partial-overlap cases contribute to both diagonal and off-diagonal cells.</text>
<text x="242.0" y="86" class="axis" text-anchor="middle"><tspan x="242.0" dy="0">male dominance</tspan></text>
<text x="286.0" y="86" class="axis" text-anchor="middle"><tspan x="286.0" dy="0">women</tspan><tspan x="286.0" dy="1.1em">appearance</tspan></text>
<text x="330.0" y="86" class="axis" text-anchor="middle"><tspan x="330.0" dy="0">lgbt abnormal</tspan></text>
<text x="374.0" y="86" class="axis" text-anchor="middle"><tspan x="374.0" dy="0">ethnic</tspan><tspan x="374.0" dy="1.1em">inferiority</tspan></text>
<text x="418.0" y="86" class="axis" text-anchor="middle"><tspan x="418.0" dy="0">religion</tspan><tspan x="418.0" dy="1.1em">inferiority</tspan></text>
<text x="462.0" y="86" class="axis" text-anchor="middle"><tspan x="462.0" dy="0">disability</tspan><tspan x="462.0" dy="1.1em">abnormal</tspan></text>
<text x="506.0" y="86" class="axis" text-anchor="middle"><tspan x="506.0" dy="0">[NONE]</tspan></text>
<text x="208" y="166.0" class="axis" text-anchor="end"><tspan x="208" dy="0">male dominance</tspan></text>
<text x="208" y="204.0" class="axis" text-anchor="end"><tspan x="208" dy="0">women</tspan><tspan x="208" dy="1.1em">appearance</tspan></text>
<text x="208" y="254.0" class="axis" text-anchor="end"><tspan x="208" dy="0">lgbt abnormal</tspan></text>
<text x="208" y="292.0" class="axis" text-anchor="end"><tspan x="208" dy="0">ethnic</tspan><tspan x="208" dy="1.1em">inferiority</tspan></text>
<text x="208" y="336.0" class="axis" text-anchor="end"><tspan x="208" dy="0">religion</tspan><tspan x="208" dy="1.1em">inferiority</tspan></text>
<text x="208" y="380.0" class="axis" text-anchor="end"><tspan x="208" dy="0">disability</tspan><tspan x="208" dy="1.1em">abnormal</tspan></text>
<text x="208" y="430.0" class="axis" text-anchor="end"><tspan x="208" dy="0">[NONE]</tspan></text>
<rect x="220" y="140" width="44" height="44" fill="rgb(16,206,206)" class="grid"/>
<text x="242.0" y="166.0" class="celltext" text-anchor="middle" fill="#111827">21</text>
<rect x="264" y="140" width="44" height="44" fill="rgb(249,250,251)" class="grid"/>
<rect x="308" y="140" width="44" height="44" fill="rgb(16,248,248)" class="grid"/>
<text x="330.0" y="166.0" class="celltext" text-anchor="middle" fill="#111827">3</text>
<rect x="352" y="140" width="44" height="44" fill="rgb(16,245,245)" class="grid"/>
<text x="374.0" y="166.0" class="celltext" text-anchor="middle" fill="#111827">4</text>
<rect x="396" y="140" width="44" height="44" fill="rgb(249,250,251)" class="grid"/>
<rect x="440" y="140" width="44" height="44" fill="rgb(249,250,251)" class="grid"/>
<rect x="484" y="140" width="44" height="44" fill="rgb(16,194,194)" class="grid"/>
<text x="506.0" y="166.0" class="celltext" text-anchor="middle" fill="#111827">26</text>
<rect x="220" y="184" width="44" height="44" fill="rgb(249,250,251)" class="grid"/>
<rect x="264" y="184" width="44" height="44" fill="rgb(16,245,245)" class="grid"/>
<text x="286.0" y="210.0" class="celltext" text-anchor="middle" fill="#111827">4</text>
<rect x="308" y="184" width="44" height="44" fill="rgb(249,250,251)" class="grid"/>
<rect x="352" y="184" width="44" height="44" fill="rgb(249,250,251)" class="grid"/>
<rect x="396" y="184" width="44" height="44" fill="rgb(249,250,251)" class="grid"/>
<rect x="440" y="184" width="44" height="44" fill="rgb(249,250,251)" class="grid"/>
<rect x="484" y="184" width="44" height="44" fill="rgb(16,234,234)" class="grid"/>
<text x="506.0" y="210.0" class="celltext" text-anchor="middle" fill="#111827">9</text>
<rect x="220" y="228" width="44" height="44" fill="rgb(16,248,248)" class="grid"/>
<text x="242.0" y="254.0" class="celltext" text-anchor="middle" fill="#111827">3</text>
<rect x="264" y="228" width="44" height="44" fill="rgb(249,250,251)" class="grid"/>
<rect x="308" y="228" width="44" height="44" fill="rgb(16,80,80)" class="grid"/>
<text x="330.0" y="254.0" class="celltext" text-anchor="middle" fill="#ffffff">75</text>
<rect x="352" y="228" width="44" height="44" fill="rgb(16,245,245)" class="grid"/>
<text x="374.0" y="254.0" class="celltext" text-anchor="middle" fill="#111827">4</text>
<rect x="396" y="228" width="44" height="44" fill="rgb(249,250,251)" class="grid"/>
<rect x="440" y="228" width="44" height="44" fill="rgb(249,250,251)" class="grid"/>
<rect x="484" y="228" width="44" height="44" fill="rgb(16,168,168)" class="grid"/>
<text x="506.0" y="254.0" class="celltext" text-anchor="middle" fill="#111827">37</text>
<rect x="220" y="272" width="44" height="44" fill="rgb(16,245,245)" class="grid"/>
<text x="242.0" y="298.0" class="celltext" text-anchor="middle" fill="#111827">4</text>
<rect x="264" y="272" width="44" height="44" fill="rgb(249,250,251)" class="grid"/>
<rect x="308" y="272" width="44" height="44" fill="rgb(16,245,245)" class="grid"/>
<text x="330.0" y="298.0" class="celltext" text-anchor="middle" fill="#111827">4</text>
<rect x="352" y="272" width="44" height="44" fill="rgb(16,213,213)" class="grid"/>
<text x="374.0" y="298.0" class="celltext" text-anchor="middle" fill="#111827">18</text>
<rect x="396" y="272" width="44" height="44" fill="rgb(16,248,248)" class="grid"/>
<text x="418.0" y="298.0" class="celltext" text-anchor="middle" fill="#111827">3</text>
<rect x="440" y="272" width="44" height="44" fill="rgb(16,252,252)" class="grid"/>
<text x="462.0" y="298.0" class="celltext" text-anchor="middle" fill="#111827">1</text>
<rect x="484" y="272" width="44" height="44" fill="rgb(16,189,189)" class="grid"/>
<text x="506.0" y="298.0" class="celltext" text-anchor="middle" fill="#111827">28</text>
<rect x="220" y="316" width="44" height="44" fill="rgb(249,250,251)" class="grid"/>
<rect x="264" y="316" width="44" height="44" fill="rgb(249,250,251)" class="grid"/>
<rect x="308" y="316" width="44" height="44" fill="rgb(249,250,251)" class="grid"/>
<rect x="352" y="316" width="44" height="44" fill="rgb(16,248,248)" class="grid"/>
<text x="374.0" y="342.0" class="celltext" text-anchor="middle" fill="#111827">3</text>
<rect x="396" y="316" width="44" height="44" fill="rgb(16,241,241)" class="grid"/>
<text x="418.0" y="342.0" class="celltext" text-anchor="middle" fill="#111827">6</text>
<rect x="440" y="316" width="44" height="44" fill="rgb(249,250,251)" class="grid"/>
<rect x="484" y="316" width="44" height="44" fill="rgb(16,217,217)" class="grid"/>
<text x="506.0" y="342.0" class="celltext" text-anchor="middle" fill="#111827">16</text>
<rect x="220" y="360" width="44" height="44" fill="rgb(249,250,251)" class="grid"/>
<rect x="264" y="360" width="44" height="44" fill="rgb(249,250,251)" class="grid"/>
<rect x="308" y="360" width="44" height="44" fill="rgb(249,250,251)" class="grid"/>
<rect x="352" y="360" width="44" height="44" fill="rgb(16,252,252)" class="grid"/>
<text x="374.0" y="386.0" class="celltext" text-anchor="middle" fill="#111827">1</text>
<rect x="396" y="360" width="44" height="44" fill="rgb(249,250,251)" class="grid"/>
<rect x="440" y="360" width="44" height="44" fill="rgb(249,250,251)" class="grid"/>
<rect x="484" y="360" width="44" height="44" fill="rgb(16,248,248)" class="grid"/>
<text x="506.0" y="386.0" class="celltext" text-anchor="middle" fill="#111827">3</text>
<rect x="220" y="404" width="44" height="44" fill="rgb(16,194,194)" class="grid"/>
<text x="242.0" y="430.0" class="celltext" text-anchor="middle" fill="#111827">26</text>
<rect x="264" y="404" width="44" height="44" fill="rgb(16,234,234)" class="grid"/>
<text x="286.0" y="430.0" class="celltext" text-anchor="middle" fill="#111827">9</text>
<rect x="308" y="404" width="44" height="44" fill="rgb(16,168,168)" class="grid"/>
<text x="330.0" y="430.0" class="celltext" text-anchor="middle" fill="#111827">37</text>
<rect x="352" y="404" width="44" height="44" fill="rgb(16,189,189)" class="grid"/>
<text x="374.0" y="430.0" class="celltext" text-anchor="middle" fill="#111827">28</text>
<rect x="396" y="404" width="44" height="44" fill="rgb(16,217,217)" class="grid"/>
<text x="418.0" y="430.0" class="celltext" text-anchor="middle" fill="#111827">16</text>
<rect x="440" y="404" width="44" height="44" fill="rgb(16,248,248)" class="grid"/>
<text x="462.0" y="430.0" class="celltext" text-anchor="middle" fill="#111827">3</text>
<rect x="484" y="404" width="44" height="44" fill="rgb(249,250,251)" class="grid"/>
</svg>