<svg xmlns="http://www.w3.org/2000/svg" width="660" height="660" viewBox="0 0 660 660">
<style>
.title{font:700 22px sans-serif;fill:#111827;}
.subtitle{font:400 12px sans-serif;fill:#4b5563;}
.axis{font:400 11px sans-serif;fill:#111827;}
.celltext{font:400 10px sans-serif;fill:#111827;}
.foot{font:400 11px sans-serif;fill:#4b5563;}
.grid{stroke:#d1d5db;stroke-width:1;}
</style>
<rect width="100%" height="100%" fill="#ffffff"/>
<text x="24" y="34" class="title">media_narratives set-aware confusion matrix</text>
<text x="24" y="56" class="subtitle">Diagonal = shared labels; off-diagonal = non-overlapping labels; [NONE] = empty set / NA.</text>
<text x="24" y="636" class="foot">Built from 539 unordered rater pairs. Partial-overlap cases contribute to both diagonal and off-diagonal cells.</text>
<text x="240.0" y="86" class="axis" text-anchor="middle"><tspan x="240.0" dy="0">corruption</tspan></text>
<text x="280.0" y="86" class="axis" text-anchor="middle"><tspan x="280.0" dy="0">digital</tspan></text>
<text x="320.0" y="86" class="axis" text-anchor="middle"><tspan x="320.0" dy="0">east west</tspan></text>
<text x="360.0" y="86" class="axis" text-anchor="middle"><tspan x="360.0" dy="0">green</tspan><tspan x="360.0" dy="1.1em">transition</tspan></text>
<text x="400.0" y="86" class="axis" text-anchor="middle"><tspan x="400.0" dy="0">institutional</tspan><tspan x="400.0" dy="1.1em">trust</tspan></text>
<text x="440.0" y="86" class="axis" text-anchor="middle"><tspan x="440.0" dy="0">language</tspan></text>
<text x="480.0" y="86" class="axis" text-anchor="middle"><tspan x="480.0" dy="0">rural urban</tspan></text>
<text x="520.0" y="86" class="axis" text-anchor="middle"><tspan x="520.0" dy="0">small nation</tspan></text>
<text x="560.0" y="86" class="axis" text-anchor="middle"><tspan x="560.0" dy="0">startups</tspan></text>
<text x="600.0" y="86" class="axis" text-anchor="middle"><tspan x="600.0" dy="0">[NONE]</tspan></text>
<text x="208" y="164.0" class="axis" text-anchor="end"><tspan x="208" dy="0">corruption</tspan></text>
<text x="208" y="204.0" class="axis" text-anchor="end"><tspan x="208" dy="0">digital</tspan></text>
<text x="208" y="244.0" class="axis" text-anchor="end"><tspan x="208" dy="0">east west</tspan></text>
<text x="208" y="278.0" class="axis" text-anchor="end"><tspan x="208" dy="0">green</tspan><tspan x="208" dy="1.1em">transition</tspan></text>
<text x="208" y="318.0" class="axis" text-anchor="end"><tspan x="208" dy="0">institutional</tspan><tspan x="208" dy="1.1em">trust</tspan></text>
<text x="208" y="364.0" class="axis" text-anchor="end"><tspan x="208" dy="0">language</tspan></text>
<text x="208" y="404.0" class="axis" text-anchor="end"><tspan x="208" dy="0">rural urban</tspan></text>
<text x="208" y="444.0" class="axis" text-anchor="end"><tspan x="208" dy="0">small nation</tspan></text>
<text x="208" y="484.0" class="axis" text-anchor="end"><tspan x="208" dy="0">startups</tspan></text>
<text x="208" y="524.0" class="axis" text-anchor="end"><tspan x="208" dy="0">[NONE]</tspan></text>
<rect x="220" y="140" width="40" height="40" fill="rgb(16,252,252)" class="grid"/>
<text x="240.0" y="164.0" class="celltext" text-anchor="middle" fill="#111827">5</text>
<rect x="260" y="140" width="40" height="40" fill="rgb(249,250,251)" class="grid"/>
<rect x="300" y="140" width="40" height="40" fill="rgb(249,250,251)" class="grid"/>
<rect x="340" y="140" width="40" height="40" fill="rgb(249,250,251)" class="grid"/>
<rect x="380" y="140" width="40" height="40" fill="rgb(249,250,251)" class="grid"/>
<rect x="420" y="140" width="40" height="40" fill="rgb(249,250,251)" class="grid"/>
<rect x="460" y="140" width="40" height="40" fill="rgb(249,250,251)" class="grid"/>
<rect x="500" y="140" width="40" height="40" fill="rgb(249,250,251)" class="grid"/>
<rect x="540" y="140" width="40" height="40" fill="rgb(249,250,251)" class="grid"/>
<rect x="580" y="140" width="40" height="40" fill="rgb(16,251,251)" class="grid"/>
<text x="600.0" y="164.0" class="celltext" text-anchor="middle" fill="#111827">7</text>
<rect x="220" y="180" width="40" height="40" fill="rgb(249,250,251)" class="grid"/>
<rect x="260" y="180" width="40" height="40" fill="rgb(16,248,248)" class="grid"/>
<text x="280.0" y="204.0" class="celltext" text-anchor="middle" fill="#111827">14</text>
<rect x="300" y="180" width="40" height="40" fill="rgb(249,250,251)" class="grid"/>
<rect x="340" y="180" width="40" height="40" fill="rgb(16,254,254)" class="grid"/>
<text x="360.0" y="204.0" class="celltext" text-anchor="middle" fill="#111827">1</text>
<rect x="380" y="180" width="40" height="40" fill="rgb(249,250,251)" class="grid"/>
<rect x="420" y="180" width="40" height="40" fill="rgb(249,250,251)" class="grid"/>
<rect x="460" y="180" width="40" height="40" fill="rgb(249,250,251)" class="grid"/>
<rect x="500" y="180" width="40" height="40" fill="rgb(249,250,251)" class="grid"/>
<rect x="540" y="180" width="40" height="40" fill="rgb(16,252,252)" class="grid"/>
<text x="560.0" y="204.0" class="celltext" text-anchor="middle" fill="#111827">6</text>
<rect x="580" y="180" width="40" height="40" fill="rgb(16,246,246)" class="grid"/>
<text x="600.0" y="204.0" class="celltext" text-anchor="middle" fill="#111827">18</text>
<rect x="220" y="220" width="40" height="40" fill="rgb(249,250,251)" class="grid"/>
<rect x="260" y="220" width="40" height="40" fill="rgb(249,250,251)" class="grid"/>
<rect x="300" y="220" width="40" height="40" fill="rgb(249,250,251)" class="grid"/>
<rect x="340" y="220" width="40" height="40" fill="rgb(249,250,251)" class="grid"/>
<rect x="380" y="220" width="40" height="40" fill="rgb(249,250,251)" class="grid"/>
<rect x="420" y="220" width="40" height="40" fill="rgb(249,250,251)" class="grid"/>
<rect x="460" y="220" width="40" height="40" fill="rgb(249,250,251)" class="grid"/>
<rect x="500" y="220" width="40" height="40" fill="rgb(249,250,251)" class="grid"/>
<rect x="540" y="220" width="40" height="40" fill="rgb(249,250,251)" class="grid"/>
<rect x="580" y="220" width="40" height="40" fill="rgb(16,254,254)" class="grid"/>
<text x="600.0" y="244.0" class="celltext" text-anchor="middle" fill="#111827">2</text>
<rect x="220" y="260" width="40" height="40" fill="rgb(249,250,251)" class="grid"/>
<rect x="260" y="260" width="40" height="40" fill="rgb(16,254,254)" class="grid"/>
<text x="280.0" y="284.0" class="celltext" text-anchor="middle" fill="#111827">1</text>
<rect x="300" y="260" width="40" height="40" fill="rgb(249,250,251)" class="grid"/>
<rect x="340" y="260" width="40" height="40" fill="rgb(16,253,253)" class="grid"/>
<text x="360.0" y="284.0" class="celltext" text-anchor="middle" fill="#111827">4</text>
<rect x="380" y="260" width="40" height="40" fill="rgb(249,250,251)" class="grid"/>
<rect x="420" y="260" width="40" height="40" fill="rgb(249,250,251)" class="grid"/>
<rect x="460" y="260" width="40" height="40" fill="rgb(249,250,251)" class="grid"/>
<rect x="500" y="260" width="40" height="40" fill="rgb(249,250,251)" class="grid"/>
<rect x="540" y="260" width="40" height="40" fill="rgb(16,253,253)" class="grid"/>
<text x="560.0" y="284.0" class="celltext" text-anchor="middle" fill="#111827">4</text>
<rect x="580" y="260" width="40" height="40" fill="rgb(16,243,243)" class="grid"/>
<text x="600.0" y="284.0" class="celltext" text-anchor="middle" fill="#111827">24</text>
<rect x="220" y="300" width="40" height="40" fill="rgb(249,250,251)" class="grid"/>
<rect x="260" y="300" width="40" height="40" fill="rgb(249,250,251)" class="grid"/>
<rect x="300" y="300" width="40" height="40" fill="rgb(249,250,251)" class="grid"/>
<rect x="340" y="300" width="40" height="40" fill="rgb(249,250,251)" class="grid"/>
<rect x="380" y="300" width="40" height="40" fill="rgb(16,253,253)" class="grid"/>
<text x="400.0" y="324.0" class="celltext" text-anchor="middle" fill="#111827">3</text>
<rect x="420" y="300" width="40" height="40" fill="rgb(249,250,251)" class="grid"/>
<rect x="460" y="300" width="40" height="40" fill="rgb(249,250,251)" class="grid"/>
<rect x="500" y="300" width="40" height="40" fill="rgb(249,250,251)" class="grid"/>
<rect x="540" y="300" width="40" height="40" fill="rgb(249,250,251)" class="grid"/>
<rect x="580" y="300" width="40" height="40" fill="rgb(16,243,243)" class="grid"/>
<text x="600.0" y="324.0" class="celltext" text-anchor="middle" fill="#111827">24</text>
<rect x="220" y="340" width="40" height="40" fill="rgb(249,250,251)" class="grid"/>
<rect x="260" y="340" width="40" height="40" fill="rgb(249,250,251)" class="grid"/>
<rect x="300" y="340" width="40" height="40" fill="rgb(249,250,251)" class="grid"/>
<rect x="340" y="340" width="40" height="40" fill="rgb(249,250,251)" class="grid"/>
<rect x="380" y="340" width="40" height="40" fill="rgb(249,250,251)" class="grid"/>
<rect x="420" y="340" width="40" height="40" fill="rgb(249,250,251)" class="grid"/>
<rect x="460" y="340" width="40" height="40" fill="rgb(249,250,251)" class="grid"/>
<rect x="500" y="340" width="40" height="40" fill="rgb(249,250,251)" class="grid"/>
<rect x="540" y="340" width="40" height="40" fill="rgb(249,250,251)" class="grid"/>
<rect x="580" y="340" width="40" height="40" fill="rgb(16,253,253)" class="grid"/>
<text x="600.0" y="364.0" class="celltext" text-anchor="middle" fill="#111827">3</text>
<rect x="220" y="380" width="40" height="40" fill="rgb(249,250,251)" class="grid"/>
<rect x="260" y="380" width="40" height="40" fill="rgb(249,250,251)" class="grid"/>
<rect x="300" y="380" width="40" height="40" fill="rgb(249,250,251)" class="grid"/>
<rect x="340" y="380" width="40" height="40" fill="rgb(249,250,251)" class="grid"/>
<rect x="380" y="380" width="40" height="40" fill="rgb(249,250,251)" class="grid"/>
<rect x="420" y="380" width="40" height="40" fill="rgb(249,250,251)" class="grid"/>
<rect x="460" y="380" width="40" height="40" fill="rgb(249,250,251)" class="grid"/>
<rect x="500" y="380" width="40" height="40" fill="rgb(249,250,251)" class="grid"/>
<rect x="540" y="380" width="40" height="40" fill="rgb(249,250,251)" class="grid"/>
<rect x="580" y="380" width="40" height="40" fill="rgb(16,254,254)" class="grid"/>
<text x="600.0" y="404.0" class="celltext" text-anchor="middle" fill="#111827">2</text>
<rect x="220" y="420" width="40" height="40" fill="rgb(249,250,251)" class="grid"/>
<rect x="260" y="420" width="40" height="40" fill="rgb(249,250,251)" class="grid"/>
<rect x="300" y="420" width="40" height="40" fill="rgb(249,250,251)" class="grid"/>
<rect x="340" y="420" width="40" height="40" fill="rgb(249,250,251)" class="grid"/>
<rect x="380" y="420" width="40" height="40" fill="rgb(249,250,251)" class="grid"/>
<rect x="420" y="420" width="40" height="40" fill="rgb(249,250,251)" class="grid"/>
<rect x="460" y="420" width="40" height="40" fill="rgb(249,250,251)" class="grid"/>
<rect x="500" y="420" width="40" height="40" fill="rgb(16,254,254)" class="grid"/>
<text x="520.0" y="444.0" class="celltext" text-anchor="middle" fill="#111827">1</text>
<rect x="540" y="420" width="40" height="40" fill="rgb(249,250,251)" class="grid"/>
<rect x="580" y="420" width="40" height="40" fill="rgb(16,252,252)" class="grid"/>
<text x="600.0" y="444.0" class="celltext" text-anchor="middle" fill="#111827">6</text>
<rect x="220" y="460" width="40" height="40" fill="rgb(249,250,251)" class="grid"/>
<rect x="260" y="460" width="40" height="40" fill="rgb(16,252,252)" class="grid"/>
<text x="280.0" y="484.0" class="celltext" text-anchor="middle" fill="#111827">6</text>
<rect x="300" y="460" width="40" height="40" fill="rgb(249,250,251)" class="grid"/>
<rect x="340" y="460" width="40" height="40" fill="rgb(16,253,253)" class="grid"/>
<text x="360.0" y="484.0" class="celltext" text-anchor="middle" fill="#111827">4</text>
<rect x="380" y="460" width="40" height="40" fill="rgb(249,250,251)" class="grid"/>
<rect x="420" y="460" width="40" height="40" fill="rgb(249,250,251)" class="grid"/>
<rect x="460" y="460" width="40" height="40" fill="rgb(249,250,251)" class="grid"/>
<rect x="500" y="460" width="40" height="40" fill="rgb(249,250,251)" class="grid"/>
<rect x="540" y="460" width="40" height="40" fill="rgb(16,249,249)" class="grid"/>
<text x="560.0" y="484.0" class="celltext" text-anchor="middle" fill="#111827">11</text>
<rect x="580" y="460" width="40" height="40" fill="rgb(16,227,227)" class="grid"/>
<text x="600.0" y="484.0" class="celltext" text-anchor="middle" fill="#111827">55</text>
<rect x="220" y="500" width="40" height="40" fill="rgb(16,251,251)" class="grid"/>
<text x="240.0" y="524.0" class="celltext" text-anchor="middle" fill="#111827">7</text>
<rect x="260" y="500" width="40" height="40" fill="rgb(16,246,246)" class="grid"/>
<text x="280.0" y="524.0" class="celltext" text-anchor="middle" fill="#111827">18</text>
<rect x="300" y="500" width="40" height="40" fill="rgb(16,254,254)" class="grid"/>
<text x="320.0" y="524.0" class="celltext" text-anchor="middle" fill="#111827">2</text>
<rect x="340" y="500" width="40" height="40" fill="rgb(16,243,243)" class="grid"/>
<text x="360.0" y="524.0" class="celltext" text-anchor="middle" fill="#111827">24</text>
<rect x="380" y="500" width="40" height="40" fill="rgb(16,243,243)" class="grid"/>
<text x="400.0" y="524.0" class="celltext" text-anchor="middle" fill="#111827">24</text>
<rect x="420" y="500" width="40" height="40" fill="rgb(16,253,253)" class="grid"/>
<text x="440.0" y="524.0" class="celltext" text-anchor="middle" fill="#111827">3</text>
<rect x="460" y="500" width="40" height="40" fill="rgb(16,254,254)" class="grid"/>
<text x="480.0" y="524.0" class="celltext" text-anchor="middle" fill="#111827">2</text>
<rect x="500" y="500" width="40" height="40" fill="rgb(16,252,252)" class="grid"/>
<text x="520.0" y="524.0" class="celltext" text-anchor="middle" fill="#111827">6</text>
<rect x="540" y="500" width="40" height="40" fill="rgb(16,227,227)" class="grid"/>
<text x="560.0" y="524.0" class="celltext" text-anchor="middle" fill="#111827">55</text>
<rect x="580" y="500" width="40" height="40" fill="rgb(16,80,80)" class="grid"/>
<text x="600.0" y="524.0" class="celltext" text-anchor="middle" fill="#ffffff">356</text>
</svg>