<svg xmlns="http://www.w3.org/2000/svg" width="392" height="392" viewBox="0 0 392 392">
<style>
.title{font:700 22px sans-serif;fill:#111827;}
.subtitle{font:400 12px sans-serif;fill:#4b5563;}
.axis{font:400 11px sans-serif;fill:#111827;}
.celltext{font:400 10px sans-serif;fill:#111827;}
.foot{font:400 11px sans-serif;fill:#4b5563;}
.grid{stroke:#d1d5db;stroke-width:1;}
</style>
<rect width="100%" height="100%" fill="#ffffff"/>
<text x="24" y="34" class="title">misinformation_narratives set-aware confusion matrix</text>
<text x="24" y="56" class="subtitle">Diagonal = shared labels; off-diagonal = non-overlapping labels; [NONE] = empty set / NA.</text>
<text x="24" y="368" class="foot">Built from 539 unordered rater pairs. Partial-overlap cases contribute to both diagonal and off-diagonal cells.</text>
<text x="242.0" y="86" class="axis" text-anchor="middle"><tspan x="242.0" dy="0">ajalugu võlts</tspan></text>
<text x="286.0" y="86" class="axis" text-anchor="middle"><tspan x="286.0" dy="0">läbikukkunud</tspan><tspan x="286.0" dy="1.1em">eesti</tspan></text>
<text x="330.0" y="86" class="axis" text-anchor="middle"><tspan x="330.0" dy="0">[NONE]</tspan></text>
<text x="208" y="166.0" class="axis" text-anchor="end"><tspan x="208" dy="0">ajalugu võlts</tspan></text>
<text x="208" y="204.0" class="axis" text-anchor="end"><tspan x="208" dy="0">läbikukkunud</tspan><tspan x="208" dy="1.1em">eesti</tspan></text>
<text x="208" y="254.0" class="axis" text-anchor="end"><tspan x="208" dy="0">[NONE]</tspan></text>
<rect x="220" y="140" width="44" height="44" fill="rgb(249,250,251)" class="grid"/>
<rect x="264" y="140" width="44" height="44" fill="rgb(249,250,251)" class="grid"/>
<rect x="308" y="140" width="44" height="44" fill="rgb(16,254,254)" class="grid"/>
<text x="330.0" y="166.0" class="celltext" text-anchor="middle" fill="#111827">2</text>
<rect x="220" y="184" width="44" height="44" fill="rgb(249,250,251)" class="grid"/>
<rect x="264" y="184" width="44" height="44" fill="rgb(16,254,254)" class="grid"/>
<text x="286.0" y="210.0" class="celltext" text-anchor="middle" fill="#111827">1</text>
<rect x="308" y="184" width="44" height="44" fill="rgb(16,251,251)" class="grid"/>
<text x="330.0" y="210.0" class="celltext" text-anchor="middle" fill="#111827">10</text>
<rect x="220" y="228" width="44" height="44" fill="rgb(16,254,254)" class="grid"/>
<text x="242.0" y="254.0" class="celltext" text-anchor="middle" fill="#111827">2</text>
<rect x="264" y="228" width="44" height="44" fill="rgb(16,251,251)" class="grid"/>
<text x="286.0" y="254.0" class="celltext" text-anchor="middle" fill="#111827">10</text>
<rect x="308" y="228" width="44" height="44" fill="rgb(16,80,80)" class="grid"/>
<text x="330.0" y="254.0" class="celltext" text-anchor="middle" fill="#ffffff">526</text>
</svg>