<svg xmlns="http://www.w3.org/2000/svg" width="568" height="550" viewBox="0 0 568 550">
<style>
.title{font:700 22px sans-serif;fill:#111827;}
.subtitle{font:400 12px sans-serif;fill:#4b5563;}
.axis{font:400 11px sans-serif;fill:#111827;}
.celltext{font:400 10px sans-serif;fill:#111827;}
.foot{font:400 11px sans-serif;fill:#4b5563;}
.grid{stroke:#d1d5db;stroke-width:1;}
</style>
<rect width="100%" height="100%" fill="#ffffff"/>
<text x="24" y="34" class="title">Tsentraliseeritus: poolt vs vastu confusion matrix</text>
<text x="24" y="56" class="subtitle">Off-diagonal cells are mirrored for readability. Diagonal cells count exact-agreeing pairs once.</text>
<text x="24" y="526" class="foot">Built from 69 unordered rater pairs; off-diagonal entries are symmetrized.</text>
<text x="242.0" y="86" class="axis" text-anchor="middle"><tspan x="242.0" dy="0">NA</tspan></text>
<text x="286.0" y="86" class="axis" text-anchor="middle"><tspan x="286.0" dy="0">2</tspan></text>
<text x="330.0" y="86" class="axis" text-anchor="middle"><tspan x="330.0" dy="0">3</tspan></text>
<text x="374.0" y="86" class="axis" text-anchor="middle"><tspan x="374.0" dy="0">4</tspan></text>
<text x="418.0" y="86" class="axis" text-anchor="middle"><tspan x="418.0" dy="0">5</tspan></text>
<text x="462.0" y="86" class="axis" text-anchor="middle"><tspan x="462.0" dy="0">6</tspan></text>
<text x="506.0" y="86" class="axis" text-anchor="middle"><tspan x="506.0" dy="0">7</tspan></text>
<text x="208" y="148.0" class="axis" text-anchor="end"><tspan x="208" dy="0">NA</tspan></text>
<text x="208" y="192.0" class="axis" text-anchor="end"><tspan x="208" dy="0">2</tspan></text>
<text x="208" y="236.0" class="axis" text-anchor="end"><tspan x="208" dy="0">3</tspan></text>
<text x="208" y="280.0" class="axis" text-anchor="end"><tspan x="208" dy="0">4</tspan></text>
<text x="208" y="324.0" class="axis" text-anchor="end"><tspan x="208" dy="0">5</tspan></text>
<text x="208" y="368.0" class="axis" text-anchor="end"><tspan x="208" dy="0">6</tspan></text>
<text x="208" y="412.0" class="axis" text-anchor="end"><tspan x="208" dy="0">7</tspan></text>
<rect x="220" y="122" width="44" height="44" fill="rgb(16,80,80)" class="grid"/>
<text x="242.0" y="148.0" class="celltext" text-anchor="middle" fill="#ffffff">47</text>
<rect x="264" y="122" width="44" height="44" fill="rgb(249,250,251)" class="grid"/>
<rect x="308" y="122" width="44" height="44" fill="rgb(16,247,247)" class="grid"/>
<text x="330.0" y="148.0" class="celltext" text-anchor="middle" fill="#111827">2</text>
<rect x="352" y="122" width="44" height="44" fill="rgb(16,240,240)" class="grid"/>
<text x="374.0" y="148.0" class="celltext" text-anchor="middle" fill="#111827">4</text>
<rect x="396" y="122" width="44" height="44" fill="rgb(16,251,251)" class="grid"/>
<text x="418.0" y="148.0" class="celltext" text-anchor="middle" fill="#111827">1</text>
<rect x="440" y="122" width="44" height="44" fill="rgb(16,251,251)" class="grid"/>
<text x="462.0" y="148.0" class="celltext" text-anchor="middle" fill="#111827">1</text>
<rect x="484" y="122" width="44" height="44" fill="rgb(249,250,251)" class="grid"/>
<rect x="220" y="166" width="44" height="44" fill="rgb(249,250,251)" class="grid"/>
<rect x="264" y="166" width="44" height="44" fill="rgb(16,251,251)" class="grid"/>
<text x="286.0" y="192.0" class="celltext" text-anchor="middle" fill="#111827">1</text>
<rect x="308" y="166" width="44" height="44" fill="rgb(16,251,251)" class="grid"/>
<text x="330.0" y="192.0" class="celltext" text-anchor="middle" fill="#111827">1</text>
<rect x="352" y="166" width="44" height="44" fill="rgb(16,243,243)" class="grid"/>
<text x="374.0" y="192.0" class="celltext" text-anchor="middle" fill="#111827">3</text>
<rect x="396" y="166" width="44" height="44" fill="rgb(16,251,251)" class="grid"/>
<text x="418.0" y="192.0" class="celltext" text-anchor="middle" fill="#111827">1</text>
<rect x="440" y="166" width="44" height="44" fill="rgb(249,250,251)" class="grid"/>
<rect x="484" y="166" width="44" height="44" fill="rgb(16,251,251)" class="grid"/>
<text x="506.0" y="192.0" class="celltext" text-anchor="middle" fill="#111827">1</text>
<rect x="220" y="210" width="44" height="44" fill="rgb(16,247,247)" class="grid"/>
<text x="242.0" y="236.0" class="celltext" text-anchor="middle" fill="#111827">2</text>
<rect x="264" y="210" width="44" height="44" fill="rgb(16,251,251)" class="grid"/>
<text x="286.0" y="236.0" class="celltext" text-anchor="middle" fill="#111827">1</text>
<rect x="308" y="210" width="44" height="44" fill="rgb(16,251,251)" class="grid"/>
<text x="330.0" y="236.0" class="celltext" text-anchor="middle" fill="#111827">1</text>
<rect x="352" y="210" width="44" height="44" fill="rgb(16,243,243)" class="grid"/>
<text x="374.0" y="236.0" class="celltext" text-anchor="middle" fill="#111827">3</text>
<rect x="396" y="210" width="44" height="44" fill="rgb(249,250,251)" class="grid"/>
<rect x="440" y="210" width="44" height="44" fill="rgb(249,250,251)" class="grid"/>
<rect x="484" y="210" width="44" height="44" fill="rgb(249,250,251)" class="grid"/>
<rect x="220" y="254" width="44" height="44" fill="rgb(16,240,240)" class="grid"/>
<text x="242.0" y="280.0" class="celltext" text-anchor="middle" fill="#111827">4</text>
<rect x="264" y="254" width="44" height="44" fill="rgb(16,243,243)" class="grid"/>
<text x="286.0" y="280.0" class="celltext" text-anchor="middle" fill="#111827">3</text>
<rect x="308" y="254" width="44" height="44" fill="rgb(16,243,243)" class="grid"/>
<text x="330.0" y="280.0" class="celltext" text-anchor="middle" fill="#111827">3</text>
<rect x="352" y="254" width="44" height="44" fill="rgb(16,251,251)" class="grid"/>
<text x="374.0" y="280.0" class="celltext" text-anchor="middle" fill="#111827">1</text>
<rect x="396" y="254" width="44" height="44" fill="rgb(249,250,251)" class="grid"/>
<rect x="440" y="254" width="44" height="44" fill="rgb(249,250,251)" class="grid"/>
<rect x="484" y="254" width="44" height="44" fill="rgb(249,250,251)" class="grid"/>
<rect x="220" y="298" width="44" height="44" fill="rgb(16,251,251)" class="grid"/>
<text x="242.0" y="324.0" class="celltext" text-anchor="middle" fill="#111827">1</text>
<rect x="264" y="298" width="44" height="44" fill="rgb(16,251,251)" class="grid"/>
<text x="286.0" y="324.0" class="celltext" text-anchor="middle" fill="#111827">1</text>
<rect x="308" y="298" width="44" height="44" fill="rgb(249,250,251)" class="grid"/>
<rect x="352" y="298" width="44" height="44" fill="rgb(249,250,251)" class="grid"/>
<rect x="396" y="298" width="44" height="44" fill="rgb(249,250,251)" class="grid"/>
<rect x="440" y="298" width="44" height="44" fill="rgb(16,251,251)" class="grid"/>
<text x="462.0" y="324.0" class="celltext" text-anchor="middle" fill="#111827">1</text>
<rect x="484" y="298" width="44" height="44" fill="rgb(16,251,251)" class="grid"/>
<text x="506.0" y="324.0" class="celltext" text-anchor="middle" fill="#111827">1</text>
<rect x="220" y="342" width="44" height="44" fill="rgb(16,251,251)" class="grid"/>
<text x="242.0" y="368.0" class="celltext" text-anchor="middle" fill="#111827">1</text>
<rect x="264" y="342" width="44" height="44" fill="rgb(249,250,251)" class="grid"/>
<rect x="308" y="342" width="44" height="44" fill="rgb(249,250,251)" class="grid"/>
<rect x="352" y="342" width="44" height="44" fill="rgb(249,250,251)" class="grid"/>
<rect x="396" y="342" width="44" height="44" fill="rgb(16,251,251)" class="grid"/>
<text x="418.0" y="368.0" class="celltext" text-anchor="middle" fill="#111827">1</text>
<rect x="440" y="342" width="44" height="44" fill="rgb(249,250,251)" class="grid"/>
<rect x="484" y="342" width="44" height="44" fill="rgb(249,250,251)" class="grid"/>
<rect x="220" y="386" width="44" height="44" fill="rgb(249,250,251)" class="grid"/>
<rect x="264" y="386" width="44" height="44" fill="rgb(16,251,251)" class="grid"/>
<text x="286.0" y="412.0" class="celltext" text-anchor="middle" fill="#111827">1</text>
<rect x="308" y="386" width="44" height="44" fill="rgb(249,250,251)" class="grid"/>
<rect x="352" y="386" width="44" height="44" fill="rgb(249,250,251)" class="grid"/>
<rect x="396" y="386" width="44" height="44" fill="rgb(16,251,251)" class="grid"/>
<text x="418.0" y="412.0" class="celltext" text-anchor="middle" fill="#111827">1</text>
<rect x="440" y="386" width="44" height="44" fill="rgb(249,250,251)" class="grid"/>
<rect x="484" y="386" width="44" height="44" fill="rgb(249,250,251)" class="grid"/>
</svg>