<svg xmlns="http://www.w3.org/2000/svg" width="580" height="562" viewBox="0 0 580 562">
<style>
.title{font:700 22px sans-serif;fill:#111827;}
.subtitle{font:400 12px sans-serif;fill:#4b5563;}
.axis{font:400 11px sans-serif;fill:#111827;}
.celltext{font:400 10px sans-serif;fill:#111827;}
.foot{font:400 11px sans-serif;fill:#4b5563;}
.grid{stroke:#d1d5db;stroke-width:1;}
</style>
<rect width="100%" height="100%" fill="#ffffff"/>
<text x="24" y="34" class="title">Ühiskondlikud normid: sotsiaalliberaalsus vs konservatiivsus confusion matrix</text>
<text x="24" y="56" class="subtitle">Off-diagonal cells are mirrored for readability. Diagonal cells count exact-agreeing pairs once.</text>
<text x="24" y="538" class="foot">Built from 139 unordered rater pairs; off-diagonal entries are symmetrized.</text>
<text x="240.0" y="86" class="axis" text-anchor="middle"><tspan x="240.0" dy="0">NA</tspan></text>
<text x="280.0" y="86" class="axis" text-anchor="middle"><tspan x="280.0" dy="0">1</tspan></text>
<text x="320.0" y="86" class="axis" text-anchor="middle"><tspan x="320.0" dy="0">2</tspan></text>
<text x="360.0" y="86" class="axis" text-anchor="middle"><tspan x="360.0" dy="0">3</tspan></text>
<text x="400.0" y="86" class="axis" text-anchor="middle"><tspan x="400.0" dy="0">4</tspan></text>
<text x="440.0" y="86" class="axis" text-anchor="middle"><tspan x="440.0" dy="0">5</tspan></text>
<text x="480.0" y="86" class="axis" text-anchor="middle"><tspan x="480.0" dy="0">6</tspan></text>
<text x="520.0" y="86" class="axis" text-anchor="middle"><tspan x="520.0" dy="0">7</tspan></text>
<text x="208" y="146.0" class="axis" text-anchor="end"><tspan x="208" dy="0">NA</tspan></text>
<text x="208" y="186.0" class="axis" text-anchor="end"><tspan x="208" dy="0">1</tspan></text>
<text x="208" y="226.0" class="axis" text-anchor="end"><tspan x="208" dy="0">2</tspan></text>
<text x="208" y="266.0" class="axis" text-anchor="end"><tspan x="208" dy="0">3</tspan></text>
<text x="208" y="306.0" class="axis" text-anchor="end"><tspan x="208" dy="0">4</tspan></text>
<text x="208" y="346.0" class="axis" text-anchor="end"><tspan x="208" dy="0">5</tspan></text>
<text x="208" y="386.0" class="axis" text-anchor="end"><tspan x="208" dy="0">6</tspan></text>
<text x="208" y="426.0" class="axis" text-anchor="end"><tspan x="208" dy="0">7</tspan></text>
<rect x="220" y="122" width="40" height="40" fill="rgb(16,80,80)" class="grid"/>
<text x="240.0" y="146.0" class="celltext" text-anchor="middle" fill="#ffffff">66</text>
<rect x="260" y="122" width="40" height="40" fill="rgb(249,250,251)" class="grid"/>
<rect x="300" y="122" width="40" height="40" fill="rgb(249,250,251)" class="grid"/>
<rect x="340" y="122" width="40" height="40" fill="rgb(16,236,236)" class="grid"/>
<text x="360.0" y="146.0" class="celltext" text-anchor="middle" fill="#111827">7</text>
<rect x="380" y="122" width="40" height="40" fill="rgb(16,225,225)" class="grid"/>
<text x="400.0" y="146.0" class="celltext" text-anchor="middle" fill="#111827">11</text>
<rect x="420" y="122" width="40" height="40" fill="rgb(16,217,217)" class="grid"/>
<text x="440.0" y="146.0" class="celltext" text-anchor="middle" fill="#111827">14</text>
<rect x="460" y="122" width="40" height="40" fill="rgb(16,247,247)" class="grid"/>
<text x="480.0" y="146.0" class="celltext" text-anchor="middle" fill="#111827">3</text>
<rect x="500" y="122" width="40" height="40" fill="rgb(16,244,244)" class="grid"/>
<text x="520.0" y="146.0" class="celltext" text-anchor="middle" fill="#111827">4</text>
<rect x="220" y="162" width="40" height="40" fill="rgb(249,250,251)" class="grid"/>
<rect x="260" y="162" width="40" height="40" fill="rgb(16,252,252)" class="grid"/>
<text x="280.0" y="186.0" class="celltext" text-anchor="middle" fill="#111827">1</text>
<rect x="300" y="162" width="40" height="40" fill="rgb(249,250,251)" class="grid"/>
<rect x="340" y="162" width="40" height="40" fill="rgb(249,250,251)" class="grid"/>
<rect x="380" y="162" width="40" height="40" fill="rgb(249,250,251)" class="grid"/>
<rect x="420" y="162" width="40" height="40" fill="rgb(249,250,251)" class="grid"/>
<rect x="460" y="162" width="40" height="40" fill="rgb(249,250,251)" class="grid"/>
<rect x="500" y="162" width="40" height="40" fill="rgb(249,250,251)" class="grid"/>
<rect x="220" y="202" width="40" height="40" fill="rgb(249,250,251)" class="grid"/>
<rect x="260" y="202" width="40" height="40" fill="rgb(249,250,251)" class="grid"/>
<rect x="300" y="202" width="40" height="40" fill="rgb(249,250,251)" class="grid"/>
<rect x="340" y="202" width="40" height="40" fill="rgb(16,252,252)" class="grid"/>
<text x="360.0" y="226.0" class="celltext" text-anchor="middle" fill="#111827">1</text>
<rect x="380" y="202" width="40" height="40" fill="rgb(16,252,252)" class="grid"/>
<text x="400.0" y="226.0" class="celltext" text-anchor="middle" fill="#111827">1</text>
<rect x="420" y="202" width="40" height="40" fill="rgb(249,250,251)" class="grid"/>
<rect x="460" y="202" width="40" height="40" fill="rgb(16,252,252)" class="grid"/>
<text x="480.0" y="226.0" class="celltext" text-anchor="middle" fill="#111827">1</text>
<rect x="500" y="202" width="40" height="40" fill="rgb(249,250,251)" class="grid"/>
<rect x="220" y="242" width="40" height="40" fill="rgb(16,236,236)" class="grid"/>
<text x="240.0" y="266.0" class="celltext" text-anchor="middle" fill="#111827">7</text>
<rect x="260" y="242" width="40" height="40" fill="rgb(249,250,251)" class="grid"/>
<rect x="300" y="242" width="40" height="40" fill="rgb(16,252,252)" class="grid"/>
<text x="320.0" y="266.0" class="celltext" text-anchor="middle" fill="#111827">1</text>
<rect x="340" y="242" width="40" height="40" fill="rgb(249,250,251)" class="grid"/>
<rect x="380" y="242" width="40" height="40" fill="rgb(249,250,251)" class="grid"/>
<rect x="420" y="242" width="40" height="40" fill="rgb(16,252,252)" class="grid"/>
<text x="440.0" y="266.0" class="celltext" text-anchor="middle" fill="#111827">1</text>
<rect x="460" y="242" width="40" height="40" fill="rgb(16,252,252)" class="grid"/>
<text x="480.0" y="266.0" class="celltext" text-anchor="middle" fill="#111827">1</text>
<rect x="500" y="242" width="40" height="40" fill="rgb(16,249,249)" class="grid"/>
<text x="520.0" y="266.0" class="celltext" text-anchor="middle" fill="#111827">2</text>
<rect x="220" y="282" width="40" height="40" fill="rgb(16,225,225)" class="grid"/>
<text x="240.0" y="306.0" class="celltext" text-anchor="middle" fill="#111827">11</text>
<rect x="260" y="282" width="40" height="40" fill="rgb(249,250,251)" class="grid"/>
<rect x="300" y="282" width="40" height="40" fill="rgb(16,252,252)" class="grid"/>
<text x="320.0" y="306.0" class="celltext" text-anchor="middle" fill="#111827">1</text>
<rect x="340" y="282" width="40" height="40" fill="rgb(249,250,251)" class="grid"/>
<rect x="380" y="282" width="40" height="40" fill="rgb(16,236,236)" class="grid"/>
<text x="400.0" y="306.0" class="celltext" text-anchor="middle" fill="#111827">7</text>
<rect x="420" y="282" width="40" height="40" fill="rgb(16,252,252)" class="grid"/>
<text x="440.0" y="306.0" class="celltext" text-anchor="middle" fill="#111827">1</text>
<rect x="460" y="282" width="40" height="40" fill="rgb(16,249,249)" class="grid"/>
<text x="480.0" y="306.0" class="celltext" text-anchor="middle" fill="#111827">2</text>
<rect x="500" y="282" width="40" height="40" fill="rgb(16,249,249)" class="grid"/>
<text x="520.0" y="306.0" class="celltext" text-anchor="middle" fill="#111827">2</text>
<rect x="220" y="322" width="40" height="40" fill="rgb(16,217,217)" class="grid"/>
<text x="240.0" y="346.0" class="celltext" text-anchor="middle" fill="#111827">14</text>
<rect x="260" y="322" width="40" height="40" fill="rgb(249,250,251)" class="grid"/>
<rect x="300" y="322" width="40" height="40" fill="rgb(249,250,251)" class="grid"/>
<rect x="340" y="322" width="40" height="40" fill="rgb(16,252,252)" class="grid"/>
<text x="360.0" y="346.0" class="celltext" text-anchor="middle" fill="#111827">1</text>
<rect x="380" y="322" width="40" height="40" fill="rgb(16,252,252)" class="grid"/>
<text x="400.0" y="346.0" class="celltext" text-anchor="middle" fill="#111827">1</text>
<rect x="420" y="322" width="40" height="40" fill="rgb(16,252,252)" class="grid"/>
<text x="440.0" y="346.0" class="celltext" text-anchor="middle" fill="#111827">1</text>
<rect x="460" y="322" width="40" height="40" fill="rgb(16,252,252)" class="grid"/>
<text x="480.0" y="346.0" class="celltext" text-anchor="middle" fill="#111827">1</text>
<rect x="500" y="322" width="40" height="40" fill="rgb(16,249,249)" class="grid"/>
<text x="520.0" y="346.0" class="celltext" text-anchor="middle" fill="#111827">2</text>
<rect x="220" y="362" width="40" height="40" fill="rgb(16,247,247)" class="grid"/>
<text x="240.0" y="386.0" class="celltext" text-anchor="middle" fill="#111827">3</text>
<rect x="260" y="362" width="40" height="40" fill="rgb(249,250,251)" class="grid"/>
<rect x="300" y="362" width="40" height="40" fill="rgb(16,252,252)" class="grid"/>
<text x="320.0" y="386.0" class="celltext" text-anchor="middle" fill="#111827">1</text>
<rect x="340" y="362" width="40" height="40" fill="rgb(16,252,252)" class="grid"/>
<text x="360.0" y="386.0" class="celltext" text-anchor="middle" fill="#111827">1</text>
<rect x="380" y="362" width="40" height="40" fill="rgb(16,249,249)" class="grid"/>
<text x="400.0" y="386.0" class="celltext" text-anchor="middle" fill="#111827">2</text>
<rect x="420" y="362" width="40" height="40" fill="rgb(16,252,252)" class="grid"/>
<text x="440.0" y="386.0" class="celltext" text-anchor="middle" fill="#111827">1</text>
<rect x="460" y="362" width="40" height="40" fill="rgb(16,252,252)" class="grid"/>
<text x="480.0" y="386.0" class="celltext" text-anchor="middle" fill="#111827">1</text>
<rect x="500" y="362" width="40" height="40" fill="rgb(16,247,247)" class="grid"/>
<text x="520.0" y="386.0" class="celltext" text-anchor="middle" fill="#111827">3</text>
<rect x="220" y="402" width="40" height="40" fill="rgb(16,244,244)" class="grid"/>
<text x="240.0" y="426.0" class="celltext" text-anchor="middle" fill="#111827">4</text>
<rect x="260" y="402" width="40" height="40" fill="rgb(249,250,251)" class="grid"/>
<rect x="300" y="402" width="40" height="40" fill="rgb(249,250,251)" class="grid"/>
<rect x="340" y="402" width="40" height="40" fill="rgb(16,249,249)" class="grid"/>
<text x="360.0" y="426.0" class="celltext" text-anchor="middle" fill="#111827">2</text>
<rect x="380" y="402" width="40" height="40" fill="rgb(16,249,249)" class="grid"/>
<text x="400.0" y="426.0" class="celltext" text-anchor="middle" fill="#111827">2</text>
<rect x="420" y="402" width="40" height="40" fill="rgb(16,249,249)" class="grid"/>
<text x="440.0" y="426.0" class="celltext" text-anchor="middle" fill="#111827">2</text>
<rect x="460" y="402" width="40" height="40" fill="rgb(16,247,247)" class="grid"/>
<text x="480.0" y="426.0" class="celltext" text-anchor="middle" fill="#111827">3</text>
<rect x="500" y="402" width="40" height="40" fill="rgb(16,239,239)" class="grid"/>
<text x="520.0" y="426.0" class="celltext" text-anchor="middle" fill="#111827">6</text>
</svg>