<svg xmlns="http://www.w3.org/2000/svg" width="872" height="854" viewBox="0 0 872 854">
<style>
.title{font:700 22px sans-serif;fill:#111827;}
.subtitle{font:400 12px sans-serif;fill:#4b5563;}
.axis{font:400 11px sans-serif;fill:#111827;}
.celltext{font:400 10px sans-serif;fill:#111827;}
.foot{font:400 11px sans-serif;fill:#4b5563;}
.grid{stroke:#d1d5db;stroke-width:1;}
</style>
<rect width="100%" height="100%" fill="#ffffff"/>
<text x="24" y="34" class="title">topics set-aware confusion matrix</text>
<text x="24" y="56" class="subtitle">Diagonal = shared labels; off-diagonal = non-overlapping labels; [NONE] = empty set / NA.</text>
<text x="24" y="830" class="foot">Built from 539 unordered rater pairs. Partial-overlap cases contribute to both diagonal and off-diagonal cells.</text>
<text x="237.0" y="86" class="axis" text-anchor="middle"><tspan x="237.0" dy="0">Arvamus</tspan></text>
<text x="271.0" y="86" class="axis" text-anchor="middle"><tspan x="271.0" dy="0">Finants</tspan></text>
<text x="305.0" y="86" class="axis" text-anchor="middle"><tspan x="305.0" dy="0">Haridus</tspan></text>
<text x="339.0" y="86" class="axis" text-anchor="middle"><tspan x="339.0" dy="0">Investeeringud</tspan></text>
<text x="373.0" y="86" class="axis" text-anchor="middle"><tspan x="373.0" dy="0">Keskkond</tspan></text>
<text x="407.0" y="86" class="axis" text-anchor="middle"><tspan x="407.0" dy="0">Krimi</tspan></text>
<text x="441.0" y="86" class="axis" text-anchor="middle"><tspan x="441.0" dy="0">Kultuur</tspan></text>
<text x="475.0" y="86" class="axis" text-anchor="middle"><tspan x="475.0" dy="0">Liiklus</tspan></text>
<text x="509.0" y="86" class="axis" text-anchor="middle"><tspan x="509.0" dy="0">Majandus</tspan></text>
<text x="543.0" y="86" class="axis" text-anchor="middle"><tspan x="543.0" dy="0">Põllumajandus</tspan></text>
<text x="577.0" y="86" class="axis" text-anchor="middle"><tspan x="577.0" dy="0">Seltskond</tspan></text>
<text x="611.0" y="86" class="axis" text-anchor="middle"><tspan x="611.0" dy="0">Sport</tspan></text>
<text x="645.0" y="86" class="axis" text-anchor="middle"><tspan x="645.0" dy="0">Tarbija</tspan></text>
<text x="679.0" y="86" class="axis" text-anchor="middle"><tspan x="679.0" dy="0">Teadus</tspan></text>
<text x="713.0" y="86" class="axis" text-anchor="middle"><tspan x="713.0" dy="0">Tervis</tspan></text>
<text x="747.0" y="86" class="axis" text-anchor="middle"><tspan x="747.0" dy="0">Välismaa</tspan></text>
<text x="781.0" y="86" class="axis" text-anchor="middle"><tspan x="781.0" dy="0">Ühiskond</tspan></text>
<text x="815.0" y="86" class="axis" text-anchor="middle"><tspan x="815.0" dy="0">[NONE]</tspan></text>
<text x="208" y="143.0" class="axis" text-anchor="end"><tspan x="208" dy="0">Arvamus</tspan></text>
<text x="208" y="177.0" class="axis" text-anchor="end"><tspan x="208" dy="0">Finants</tspan></text>
<text x="208" y="211.0" class="axis" text-anchor="end"><tspan x="208" dy="0">Haridus</tspan></text>
<text x="208" y="245.0" class="axis" text-anchor="end"><tspan x="208" dy="0">Investeeringud</tspan></text>
<text x="208" y="279.0" class="axis" text-anchor="end"><tspan x="208" dy="0">Keskkond</tspan></text>
<text x="208" y="313.0" class="axis" text-anchor="end"><tspan x="208" dy="0">Krimi</tspan></text>
<text x="208" y="347.0" class="axis" text-anchor="end"><tspan x="208" dy="0">Kultuur</tspan></text>
<text x="208" y="381.0" class="axis" text-anchor="end"><tspan x="208" dy="0">Liiklus</tspan></text>
<text x="208" y="415.0" class="axis" text-anchor="end"><tspan x="208" dy="0">Majandus</tspan></text>
<text x="208" y="449.0" class="axis" text-anchor="end"><tspan x="208" dy="0">Põllumajandus</tspan></text>
<text x="208" y="483.0" class="axis" text-anchor="end"><tspan x="208" dy="0">Seltskond</tspan></text>
<text x="208" y="517.0" class="axis" text-anchor="end"><tspan x="208" dy="0">Sport</tspan></text>
<text x="208" y="551.0" class="axis" text-anchor="end"><tspan x="208" dy="0">Tarbija</tspan></text>
<text x="208" y="585.0" class="axis" text-anchor="end"><tspan x="208" dy="0">Teadus</tspan></text>
<text x="208" y="619.0" class="axis" text-anchor="end"><tspan x="208" dy="0">Tervis</tspan></text>
<text x="208" y="653.0" class="axis" text-anchor="end"><tspan x="208" dy="0">Välismaa</tspan></text>
<text x="208" y="687.0" class="axis" text-anchor="end"><tspan x="208" dy="0">Ühiskond</tspan></text>
<text x="208" y="721.0" class="axis" text-anchor="end"><tspan x="208" dy="0">[NONE]</tspan></text>
<rect x="220" y="122" width="34" height="34" fill="rgb(16,225,225)" class="grid"/>
<text x="237.0" y="143.0" class="celltext" text-anchor="middle" fill="#111827">21</text>
<rect x="254" y="122" width="34" height="34" fill="rgb(16,252,252)" class="grid"/>
<text x="271.0" y="143.0" class="celltext" text-anchor="middle" fill="#111827">2</text>
<rect x="288" y="122" width="34" height="34" fill="rgb(249,250,251)" class="grid"/>
<rect x="322" y="122" width="34" height="34" fill="rgb(16,249,249)" class="grid"/>
<text x="339.0" y="143.0" class="celltext" text-anchor="middle" fill="#111827">4</text>
<rect x="356" y="122" width="34" height="34" fill="rgb(16,253,253)" class="grid"/>
<text x="373.0" y="143.0" class="celltext" text-anchor="middle" fill="#111827">1</text>
<rect x="390" y="122" width="34" height="34" fill="rgb(249,250,251)" class="grid"/>
<rect x="424" y="122" width="34" height="34" fill="rgb(16,245,245)" class="grid"/>
<text x="441.0" y="143.0" class="celltext" text-anchor="middle" fill="#111827">7</text>
<rect x="458" y="122" width="34" height="34" fill="rgb(16,253,253)" class="grid"/>
<text x="475.0" y="143.0" class="celltext" text-anchor="middle" fill="#111827">1</text>
<rect x="492" y="122" width="34" height="34" fill="rgb(16,234,234)" class="grid"/>
<text x="509.0" y="143.0" class="celltext" text-anchor="middle" fill="#111827">15</text>
<rect x="526" y="122" width="34" height="34" fill="rgb(249,250,251)" class="grid"/>
<rect x="560" y="122" width="34" height="34" fill="rgb(16,250,250)" class="grid"/>
<text x="577.0" y="143.0" class="celltext" text-anchor="middle" fill="#111827">3</text>
<rect x="594" y="122" width="34" height="34" fill="rgb(16,253,253)" class="grid"/>
<text x="611.0" y="143.0" class="celltext" text-anchor="middle" fill="#111827">1</text>
<rect x="628" y="122" width="34" height="34" fill="rgb(16,246,246)" class="grid"/>
<text x="645.0" y="143.0" class="celltext" text-anchor="middle" fill="#111827">6</text>
<rect x="662" y="122" width="34" height="34" fill="rgb(16,252,252)" class="grid"/>
<text x="679.0" y="143.0" class="celltext" text-anchor="middle" fill="#111827">2</text>
<rect x="696" y="122" width="34" height="34" fill="rgb(16,252,252)" class="grid"/>
<text x="713.0" y="143.0" class="celltext" text-anchor="middle" fill="#111827">2</text>
<rect x="730" y="122" width="34" height="34" fill="rgb(16,246,246)" class="grid"/>
<text x="747.0" y="143.0" class="celltext" text-anchor="middle" fill="#111827">6</text>
<rect x="764" y="122" width="34" height="34" fill="rgb(16,248,248)" class="grid"/>
<text x="781.0" y="143.0" class="celltext" text-anchor="middle" fill="#111827">5</text>
<rect x="798" y="122" width="34" height="34" fill="rgb(16,221,221)" class="grid"/>
<text x="815.0" y="143.0" class="celltext" text-anchor="middle" fill="#111827">24</text>
<rect x="220" y="156" width="34" height="34" fill="rgb(16,252,252)" class="grid"/>
<text x="237.0" y="177.0" class="celltext" text-anchor="middle" fill="#111827">2</text>
<rect x="254" y="156" width="34" height="34" fill="rgb(16,221,221)" class="grid"/>
<text x="271.0" y="177.0" class="celltext" text-anchor="middle" fill="#111827">24</text>
<rect x="288" y="156" width="34" height="34" fill="rgb(249,250,251)" class="grid"/>
<rect x="322" y="156" width="34" height="34" fill="rgb(16,220,220)" class="grid"/>
<text x="339.0" y="177.0" class="celltext" text-anchor="middle" fill="#111827">25</text>
<rect x="356" y="156" width="34" height="34" fill="rgb(249,250,251)" class="grid"/>
<rect x="390" y="156" width="34" height="34" fill="rgb(16,249,249)" class="grid"/>
<text x="407.0" y="177.0" class="celltext" text-anchor="middle" fill="#111827">4</text>
<rect x="424" y="156" width="34" height="34" fill="rgb(249,250,251)" class="grid"/>
<rect x="458" y="156" width="34" height="34" fill="rgb(16,253,253)" class="grid"/>
<text x="475.0" y="177.0" class="celltext" text-anchor="middle" fill="#111827">1</text>
<rect x="492" y="156" width="34" height="34" fill="rgb(16,190,190)" class="grid"/>
<text x="509.0" y="177.0" class="celltext" text-anchor="middle" fill="#111827">46</text>
<rect x="526" y="156" width="34" height="34" fill="rgb(249,250,251)" class="grid"/>
<rect x="560" y="156" width="34" height="34" fill="rgb(249,250,251)" class="grid"/>
<rect x="594" y="156" width="34" height="34" fill="rgb(249,250,251)" class="grid"/>
<rect x="628" y="156" width="34" height="34" fill="rgb(16,253,253)" class="grid"/>
<text x="645.0" y="177.0" class="celltext" text-anchor="middle" fill="#111827">1</text>
<rect x="662" y="156" width="34" height="34" fill="rgb(249,250,251)" class="grid"/>
<rect x="696" y="156" width="34" height="34" fill="rgb(249,250,251)" class="grid"/>
<rect x="730" y="156" width="34" height="34" fill="rgb(16,245,245)" class="grid"/>
<text x="747.0" y="177.0" class="celltext" text-anchor="middle" fill="#111827">7</text>
<rect x="764" y="156" width="34" height="34" fill="rgb(16,253,253)" class="grid"/>
<text x="781.0" y="177.0" class="celltext" text-anchor="middle" fill="#111827">1</text>
<rect x="798" y="156" width="34" height="34" fill="rgb(16,242,242)" class="grid"/>
<text x="815.0" y="177.0" class="celltext" text-anchor="middle" fill="#111827">9</text>
<rect x="220" y="190" width="34" height="34" fill="rgb(249,250,251)" class="grid"/>
<rect x="254" y="190" width="34" height="34" fill="rgb(249,250,251)" class="grid"/>
<rect x="288" y="190" width="34" height="34" fill="rgb(16,250,250)" class="grid"/>
<text x="305.0" y="211.0" class="celltext" text-anchor="middle" fill="#111827">3</text>
<rect x="322" y="190" width="34" height="34" fill="rgb(249,250,251)" class="grid"/>
<rect x="356" y="190" width="34" height="34" fill="rgb(16,253,253)" class="grid"/>
<text x="373.0" y="211.0" class="celltext" text-anchor="middle" fill="#111827">1</text>
<rect x="390" y="190" width="34" height="34" fill="rgb(249,250,251)" class="grid"/>
<rect x="424" y="190" width="34" height="34" fill="rgb(249,250,251)" class="grid"/>
<rect x="458" y="190" width="34" height="34" fill="rgb(249,250,251)" class="grid"/>
<rect x="492" y="190" width="34" height="34" fill="rgb(249,250,251)" class="grid"/>
<rect x="526" y="190" width="34" height="34" fill="rgb(249,250,251)" class="grid"/>
<rect x="560" y="190" width="34" height="34" fill="rgb(249,250,251)" class="grid"/>
<rect x="594" y="190" width="34" height="34" fill="rgb(249,250,251)" class="grid"/>
<rect x="628" y="190" width="34" height="34" fill="rgb(249,250,251)" class="grid"/>
<rect x="662" y="190" width="34" height="34" fill="rgb(16,252,252)" class="grid"/>
<text x="679.0" y="211.0" class="celltext" text-anchor="middle" fill="#111827">2</text>
<rect x="696" y="190" width="34" height="34" fill="rgb(249,250,251)" class="grid"/>
<rect x="730" y="190" width="34" height="34" fill="rgb(249,250,251)" class="grid"/>
<rect x="764" y="190" width="34" height="34" fill="rgb(16,253,253)" class="grid"/>
<text x="781.0" y="211.0" class="celltext" text-anchor="middle" fill="#111827">1</text>
<rect x="798" y="190" width="34" height="34" fill="rgb(16,252,252)" class="grid"/>
<text x="815.0" y="211.0" class="celltext" text-anchor="middle" fill="#111827">2</text>
<rect x="220" y="224" width="34" height="34" fill="rgb(16,249,249)" class="grid"/>
<text x="237.0" y="245.0" class="celltext" text-anchor="middle" fill="#111827">4</text>
<rect x="254" y="224" width="34" height="34" fill="rgb(16,220,220)" class="grid"/>
<text x="271.0" y="245.0" class="celltext" text-anchor="middle" fill="#111827">25</text>
<rect x="288" y="224" width="34" height="34" fill="rgb(249,250,251)" class="grid"/>
<rect x="322" y="224" width="34" height="34" fill="rgb(16,192,192)" class="grid"/>
<text x="339.0" y="245.0" class="celltext" text-anchor="middle" fill="#111827">45</text>
<rect x="356" y="224" width="34" height="34" fill="rgb(16,248,248)" class="grid"/>
<text x="373.0" y="245.0" class="celltext" text-anchor="middle" fill="#111827">5</text>
<rect x="390" y="224" width="34" height="34" fill="rgb(249,250,251)" class="grid"/>
<rect x="424" y="224" width="34" height="34" fill="rgb(16,249,249)" class="grid"/>
<text x="441.0" y="245.0" class="celltext" text-anchor="middle" fill="#111827">4</text>
<rect x="458" y="224" width="34" height="34" fill="rgb(16,252,252)" class="grid"/>
<text x="475.0" y="245.0" class="celltext" text-anchor="middle" fill="#111827">2</text>
<rect x="492" y="224" width="34" height="34" fill="rgb(16,211,211)" class="grid"/>
<text x="509.0" y="245.0" class="celltext" text-anchor="middle" fill="#111827">31</text>
<rect x="526" y="224" width="34" height="34" fill="rgb(16,252,252)" class="grid"/>
<text x="543.0" y="245.0" class="celltext" text-anchor="middle" fill="#111827">2</text>
<rect x="560" y="224" width="34" height="34" fill="rgb(16,253,253)" class="grid"/>
<text x="577.0" y="245.0" class="celltext" text-anchor="middle" fill="#111827">1</text>
<rect x="594" y="224" width="34" height="34" fill="rgb(249,250,251)" class="grid"/>
<rect x="628" y="224" width="34" height="34" fill="rgb(16,239,239)" class="grid"/>
<text x="645.0" y="245.0" class="celltext" text-anchor="middle" fill="#111827">11</text>
<rect x="662" y="224" width="34" height="34" fill="rgb(16,243,243)" class="grid"/>
<text x="679.0" y="245.0" class="celltext" text-anchor="middle" fill="#111827">8</text>
<rect x="696" y="224" width="34" height="34" fill="rgb(16,252,252)" class="grid"/>
<text x="713.0" y="245.0" class="celltext" text-anchor="middle" fill="#111827">2</text>
<rect x="730" y="224" width="34" height="34" fill="rgb(16,241,241)" class="grid"/>
<text x="747.0" y="245.0" class="celltext" text-anchor="middle" fill="#111827">10</text>
<rect x="764" y="224" width="34" height="34" fill="rgb(16,241,241)" class="grid"/>
<text x="781.0" y="245.0" class="celltext" text-anchor="middle" fill="#111827">10</text>
<rect x="798" y="224" width="34" height="34" fill="rgb(16,228,228)" class="grid"/>
<text x="815.0" y="245.0" class="celltext" text-anchor="middle" fill="#111827">19</text>
<rect x="220" y="258" width="34" height="34" fill="rgb(16,253,253)" class="grid"/>
<text x="237.0" y="279.0" class="celltext" text-anchor="middle" fill="#111827">1</text>
<rect x="254" y="258" width="34" height="34" fill="rgb(249,250,251)" class="grid"/>
<rect x="288" y="258" width="34" height="34" fill="rgb(16,253,253)" class="grid"/>
<text x="305.0" y="279.0" class="celltext" text-anchor="middle" fill="#111827">1</text>
<rect x="322" y="258" width="34" height="34" fill="rgb(16,248,248)" class="grid"/>
<text x="339.0" y="279.0" class="celltext" text-anchor="middle" fill="#111827">5</text>
<rect x="356" y="258" width="34" height="34" fill="rgb(16,249,249)" class="grid"/>
<text x="373.0" y="279.0" class="celltext" text-anchor="middle" fill="#111827">4</text>
<rect x="390" y="258" width="34" height="34" fill="rgb(249,250,251)" class="grid"/>
<rect x="424" y="258" width="34" height="34" fill="rgb(249,250,251)" class="grid"/>
<rect x="458" y="258" width="34" height="34" fill="rgb(249,250,251)" class="grid"/>
<rect x="492" y="258" width="34" height="34" fill="rgb(16,248,248)" class="grid"/>
<text x="509.0" y="279.0" class="celltext" text-anchor="middle" fill="#111827">5</text>
<rect x="526" y="258" width="34" height="34" fill="rgb(16,252,252)" class="grid"/>
<text x="543.0" y="279.0" class="celltext" text-anchor="middle" fill="#111827">2</text>
<rect x="560" y="258" width="34" height="34" fill="rgb(249,250,251)" class="grid"/>
<rect x="594" y="258" width="34" height="34" fill="rgb(249,250,251)" class="grid"/>
<rect x="628" y="258" width="34" height="34" fill="rgb(16,253,253)" class="grid"/>
<text x="645.0" y="279.0" class="celltext" text-anchor="middle" fill="#111827">1</text>
<rect x="662" y="258" width="34" height="34" fill="rgb(249,250,251)" class="grid"/>
<rect x="696" y="258" width="34" height="34" fill="rgb(249,250,251)" class="grid"/>
<rect x="730" y="258" width="34" height="34" fill="rgb(16,250,250)" class="grid"/>
<text x="747.0" y="279.0" class="celltext" text-anchor="middle" fill="#111827">3</text>
<rect x="764" y="258" width="34" height="34" fill="rgb(16,252,252)" class="grid"/>
<text x="781.0" y="279.0" class="celltext" text-anchor="middle" fill="#111827">2</text>
<rect x="798" y="258" width="34" height="34" fill="rgb(16,249,249)" class="grid"/>
<text x="815.0" y="279.0" class="celltext" text-anchor="middle" fill="#111827">4</text>
<rect x="220" y="292" width="34" height="34" fill="rgb(249,250,251)" class="grid"/>
<rect x="254" y="292" width="34" height="34" fill="rgb(16,249,249)" class="grid"/>
<text x="271.0" y="313.0" class="celltext" text-anchor="middle" fill="#111827">4</text>
<rect x="288" y="292" width="34" height="34" fill="rgb(249,250,251)" class="grid"/>
<rect x="322" y="292" width="34" height="34" fill="rgb(249,250,251)" class="grid"/>
<rect x="356" y="292" width="34" height="34" fill="rgb(249,250,251)" class="grid"/>
<rect x="390" y="292" width="34" height="34" fill="rgb(16,239,239)" class="grid"/>
<text x="407.0" y="313.0" class="celltext" text-anchor="middle" fill="#111827">11</text>
<rect x="424" y="292" width="34" height="34" fill="rgb(249,250,251)" class="grid"/>
<rect x="458" y="292" width="34" height="34" fill="rgb(249,250,251)" class="grid"/>
<rect x="492" y="292" width="34" height="34" fill="rgb(16,246,246)" class="grid"/>
<text x="509.0" y="313.0" class="celltext" text-anchor="middle" fill="#111827">6</text>
<rect x="526" y="292" width="34" height="34" fill="rgb(249,250,251)" class="grid"/>
<rect x="560" y="292" width="34" height="34" fill="rgb(249,250,251)" class="grid"/>
<rect x="594" y="292" width="34" height="34" fill="rgb(249,250,251)" class="grid"/>
<rect x="628" y="292" width="34" height="34" fill="rgb(249,250,251)" class="grid"/>
<rect x="662" y="292" width="34" height="34" fill="rgb(249,250,251)" class="grid"/>
<rect x="696" y="292" width="34" height="34" fill="rgb(249,250,251)" class="grid"/>
<rect x="730" y="292" width="34" height="34" fill="rgb(16,253,253)" class="grid"/>
<text x="747.0" y="313.0" class="celltext" text-anchor="middle" fill="#111827">1</text>
<rect x="764" y="292" width="34" height="34" fill="rgb(16,253,253)" class="grid"/>
<text x="781.0" y="313.0" class="celltext" text-anchor="middle" fill="#111827">1</text>
<rect x="798" y="292" width="34" height="34" fill="rgb(16,246,246)" class="grid"/>
<text x="815.0" y="313.0" class="celltext" text-anchor="middle" fill="#111827">6</text>
<rect x="220" y="326" width="34" height="34" fill="rgb(16,245,245)" class="grid"/>
<text x="237.0" y="347.0" class="celltext" text-anchor="middle" fill="#111827">7</text>
<rect x="254" y="326" width="34" height="34" fill="rgb(249,250,251)" class="grid"/>
<rect x="288" y="326" width="34" height="34" fill="rgb(249,250,251)" class="grid"/>
<rect x="322" y="326" width="34" height="34" fill="rgb(16,249,249)" class="grid"/>
<text x="339.0" y="347.0" class="celltext" text-anchor="middle" fill="#111827">4</text>
<rect x="356" y="326" width="34" height="34" fill="rgb(249,250,251)" class="grid"/>
<rect x="390" y="326" width="34" height="34" fill="rgb(249,250,251)" class="grid"/>
<rect x="424" y="326" width="34" height="34" fill="rgb(16,235,235)" class="grid"/>
<text x="441.0" y="347.0" class="celltext" text-anchor="middle" fill="#111827">14</text>
<rect x="458" y="326" width="34" height="34" fill="rgb(249,250,251)" class="grid"/>
<rect x="492" y="326" width="34" height="34" fill="rgb(16,253,253)" class="grid"/>
<text x="509.0" y="347.0" class="celltext" text-anchor="middle" fill="#111827">1</text>
<rect x="526" y="326" width="34" height="34" fill="rgb(249,250,251)" class="grid"/>
<rect x="560" y="326" width="34" height="34" fill="rgb(16,250,250)" class="grid"/>
<text x="577.0" y="347.0" class="celltext" text-anchor="middle" fill="#111827">3</text>
<rect x="594" y="326" width="34" height="34" fill="rgb(249,250,251)" class="grid"/>
<rect x="628" y="326" width="34" height="34" fill="rgb(16,249,249)" class="grid"/>
<text x="645.0" y="347.0" class="celltext" text-anchor="middle" fill="#111827">4</text>
<rect x="662" y="326" width="34" height="34" fill="rgb(16,253,253)" class="grid"/>
<text x="679.0" y="347.0" class="celltext" text-anchor="middle" fill="#111827">1</text>
<rect x="696" y="326" width="34" height="34" fill="rgb(249,250,251)" class="grid"/>
<rect x="730" y="326" width="34" height="34" fill="rgb(249,250,251)" class="grid"/>
<rect x="764" y="326" width="34" height="34" fill="rgb(16,238,238)" class="grid"/>
<text x="781.0" y="347.0" class="celltext" text-anchor="middle" fill="#111827">12</text>
<rect x="798" y="326" width="34" height="34" fill="rgb(16,243,243)" class="grid"/>
<text x="815.0" y="347.0" class="celltext" text-anchor="middle" fill="#111827">8</text>
<rect x="220" y="360" width="34" height="34" fill="rgb(16,253,253)" class="grid"/>
<text x="237.0" y="381.0" class="celltext" text-anchor="middle" fill="#111827">1</text>
<rect x="254" y="360" width="34" height="34" fill="rgb(16,253,253)" class="grid"/>
<text x="271.0" y="381.0" class="celltext" text-anchor="middle" fill="#111827">1</text>
<rect x="288" y="360" width="34" height="34" fill="rgb(249,250,251)" class="grid"/>
<rect x="322" y="360" width="34" height="34" fill="rgb(16,252,252)" class="grid"/>
<text x="339.0" y="381.0" class="celltext" text-anchor="middle" fill="#111827">2</text>
<rect x="356" y="360" width="34" height="34" fill="rgb(249,250,251)" class="grid"/>
<rect x="390" y="360" width="34" height="34" fill="rgb(249,250,251)" class="grid"/>
<rect x="424" y="360" width="34" height="34" fill="rgb(249,250,251)" class="grid"/>
<rect x="458" y="360" width="34" height="34" fill="rgb(16,242,242)" class="grid"/>
<text x="475.0" y="381.0" class="celltext" text-anchor="middle" fill="#111827">9</text>
<rect x="492" y="360" width="34" height="34" fill="rgb(16,253,253)" class="grid"/>
<text x="509.0" y="381.0" class="celltext" text-anchor="middle" fill="#111827">1</text>
<rect x="526" y="360" width="34" height="34" fill="rgb(249,250,251)" class="grid"/>
<rect x="560" y="360" width="34" height="34" fill="rgb(249,250,251)" class="grid"/>
<rect x="594" y="360" width="34" height="34" fill="rgb(249,250,251)" class="grid"/>
<rect x="628" y="360" width="34" height="34" fill="rgb(16,248,248)" class="grid"/>
<text x="645.0" y="381.0" class="celltext" text-anchor="middle" fill="#111827">5</text>
<rect x="662" y="360" width="34" height="34" fill="rgb(16,252,252)" class="grid"/>
<text x="679.0" y="381.0" class="celltext" text-anchor="middle" fill="#111827">2</text>
<rect x="696" y="360" width="34" height="34" fill="rgb(249,250,251)" class="grid"/>
<rect x="730" y="360" width="34" height="34" fill="rgb(249,250,251)" class="grid"/>
<rect x="764" y="360" width="34" height="34" fill="rgb(16,252,252)" class="grid"/>
<text x="781.0" y="381.0" class="celltext" text-anchor="middle" fill="#111827">2</text>
<rect x="798" y="360" width="34" height="34" fill="rgb(16,246,246)" class="grid"/>
<text x="815.0" y="381.0" class="celltext" text-anchor="middle" fill="#111827">6</text>
<rect x="220" y="394" width="34" height="34" fill="rgb(16,234,234)" class="grid"/>
<text x="237.0" y="415.0" class="celltext" text-anchor="middle" fill="#111827">15</text>
<rect x="254" y="394" width="34" height="34" fill="rgb(16,190,190)" class="grid"/>
<text x="271.0" y="415.0" class="celltext" text-anchor="middle" fill="#111827">46</text>
<rect x="288" y="394" width="34" height="34" fill="rgb(249,250,251)" class="grid"/>
<rect x="322" y="394" width="34" height="34" fill="rgb(16,211,211)" class="grid"/>
<text x="339.0" y="415.0" class="celltext" text-anchor="middle" fill="#111827">31</text>
<rect x="356" y="394" width="34" height="34" fill="rgb(16,248,248)" class="grid"/>
<text x="373.0" y="415.0" class="celltext" text-anchor="middle" fill="#111827">5</text>
<rect x="390" y="394" width="34" height="34" fill="rgb(16,246,246)" class="grid"/>
<text x="407.0" y="415.0" class="celltext" text-anchor="middle" fill="#111827">6</text>
<rect x="424" y="394" width="34" height="34" fill="rgb(16,253,253)" class="grid"/>
<text x="441.0" y="415.0" class="celltext" text-anchor="middle" fill="#111827">1</text>
<rect x="458" y="394" width="34" height="34" fill="rgb(16,253,253)" class="grid"/>
<text x="475.0" y="415.0" class="celltext" text-anchor="middle" fill="#111827">1</text>
<rect x="492" y="394" width="34" height="34" fill="rgb(16,80,80)" class="grid"/>
<text x="509.0" y="415.0" class="celltext" text-anchor="middle" fill="#ffffff">125</text>
<rect x="526" y="394" width="34" height="34" fill="rgb(16,250,250)" class="grid"/>
<text x="543.0" y="415.0" class="celltext" text-anchor="middle" fill="#111827">3</text>
<rect x="560" y="394" width="34" height="34" fill="rgb(16,253,253)" class="grid"/>
<text x="577.0" y="415.0" class="celltext" text-anchor="middle" fill="#111827">1</text>
<rect x="594" y="394" width="34" height="34" fill="rgb(16,253,253)" class="grid"/>
<text x="611.0" y="415.0" class="celltext" text-anchor="middle" fill="#111827">1</text>
<rect x="628" y="394" width="34" height="34" fill="rgb(16,229,229)" class="grid"/>
<text x="645.0" y="415.0" class="celltext" text-anchor="middle" fill="#111827">18</text>
<rect x="662" y="394" width="34" height="34" fill="rgb(16,252,252)" class="grid"/>
<text x="679.0" y="415.0" class="celltext" text-anchor="middle" fill="#111827">2</text>
<rect x="696" y="394" width="34" height="34" fill="rgb(16,253,253)" class="grid"/>
<text x="713.0" y="415.0" class="celltext" text-anchor="middle" fill="#111827">1</text>
<rect x="730" y="394" width="34" height="34" fill="rgb(16,243,243)" class="grid"/>
<text x="747.0" y="415.0" class="celltext" text-anchor="middle" fill="#111827">8</text>
<rect x="764" y="394" width="34" height="34" fill="rgb(16,221,221)" class="grid"/>
<text x="781.0" y="415.0" class="celltext" text-anchor="middle" fill="#111827">24</text>
<rect x="798" y="394" width="34" height="34" fill="rgb(16,197,197)" class="grid"/>
<text x="815.0" y="415.0" class="celltext" text-anchor="middle" fill="#111827">41</text>
<rect x="220" y="428" width="34" height="34" fill="rgb(249,250,251)" class="grid"/>
<rect x="254" y="428" width="34" height="34" fill="rgb(249,250,251)" class="grid"/>
<rect x="288" y="428" width="34" height="34" fill="rgb(249,250,251)" class="grid"/>
<rect x="322" y="428" width="34" height="34" fill="rgb(16,252,252)" class="grid"/>
<text x="339.0" y="449.0" class="celltext" text-anchor="middle" fill="#111827">2</text>
<rect x="356" y="428" width="34" height="34" fill="rgb(16,252,252)" class="grid"/>
<text x="373.0" y="449.0" class="celltext" text-anchor="middle" fill="#111827">2</text>
<rect x="390" y="428" width="34" height="34" fill="rgb(249,250,251)" class="grid"/>
<rect x="424" y="428" width="34" height="34" fill="rgb(249,250,251)" class="grid"/>
<rect x="458" y="428" width="34" height="34" fill="rgb(249,250,251)" class="grid"/>
<rect x="492" y="428" width="34" height="34" fill="rgb(16,250,250)" class="grid"/>
<text x="509.0" y="449.0" class="celltext" text-anchor="middle" fill="#111827">3</text>
<rect x="526" y="428" width="34" height="34" fill="rgb(16,241,241)" class="grid"/>
<text x="543.0" y="449.0" class="celltext" text-anchor="middle" fill="#111827">10</text>
<rect x="560" y="428" width="34" height="34" fill="rgb(249,250,251)" class="grid"/>
<rect x="594" y="428" width="34" height="34" fill="rgb(249,250,251)" class="grid"/>
<rect x="628" y="428" width="34" height="34" fill="rgb(16,249,249)" class="grid"/>
<text x="645.0" y="449.0" class="celltext" text-anchor="middle" fill="#111827">4</text>
<rect x="662" y="428" width="34" height="34" fill="rgb(16,252,252)" class="grid"/>
<text x="679.0" y="449.0" class="celltext" text-anchor="middle" fill="#111827">2</text>
<rect x="696" y="428" width="34" height="34" fill="rgb(249,250,251)" class="grid"/>
<rect x="730" y="428" width="34" height="34" fill="rgb(249,250,251)" class="grid"/>
<rect x="764" y="428" width="34" height="34" fill="rgb(249,250,251)" class="grid"/>
<rect x="798" y="428" width="34" height="34" fill="rgb(16,246,246)" class="grid"/>
<text x="815.0" y="449.0" class="celltext" text-anchor="middle" fill="#111827">6</text>
<rect x="220" y="462" width="34" height="34" fill="rgb(16,250,250)" class="grid"/>
<text x="237.0" y="483.0" class="celltext" text-anchor="middle" fill="#111827">3</text>
<rect x="254" y="462" width="34" height="34" fill="rgb(249,250,251)" class="grid"/>
<rect x="288" y="462" width="34" height="34" fill="rgb(249,250,251)" class="grid"/>
<rect x="322" y="462" width="34" height="34" fill="rgb(16,253,253)" class="grid"/>
<text x="339.0" y="483.0" class="celltext" text-anchor="middle" fill="#111827">1</text>
<rect x="356" y="462" width="34" height="34" fill="rgb(249,250,251)" class="grid"/>
<rect x="390" y="462" width="34" height="34" fill="rgb(249,250,251)" class="grid"/>
<rect x="424" y="462" width="34" height="34" fill="rgb(16,250,250)" class="grid"/>
<text x="441.0" y="483.0" class="celltext" text-anchor="middle" fill="#111827">3</text>
<rect x="458" y="462" width="34" height="34" fill="rgb(249,250,251)" class="grid"/>
<rect x="492" y="462" width="34" height="34" fill="rgb(16,253,253)" class="grid"/>
<text x="509.0" y="483.0" class="celltext" text-anchor="middle" fill="#111827">1</text>
<rect x="526" y="462" width="34" height="34" fill="rgb(249,250,251)" class="grid"/>
<rect x="560" y="462" width="34" height="34" fill="rgb(249,250,251)" class="grid"/>
<rect x="594" y="462" width="34" height="34" fill="rgb(249,250,251)" class="grid"/>
<rect x="628" y="462" width="34" height="34" fill="rgb(16,250,250)" class="grid"/>
<text x="645.0" y="483.0" class="celltext" text-anchor="middle" fill="#111827">3</text>
<rect x="662" y="462" width="34" height="34" fill="rgb(249,250,251)" class="grid"/>
<rect x="696" y="462" width="34" height="34" fill="rgb(249,250,251)" class="grid"/>
<rect x="730" y="462" width="34" height="34" fill="rgb(16,253,253)" class="grid"/>
<text x="747.0" y="483.0" class="celltext" text-anchor="middle" fill="#111827">1</text>
<rect x="764" y="462" width="34" height="34" fill="rgb(249,250,251)" class="grid"/>
<rect x="798" y="462" width="34" height="34" fill="rgb(16,252,252)" class="grid"/>
<text x="815.0" y="483.0" class="celltext" text-anchor="middle" fill="#111827">2</text>
<rect x="220" y="496" width="34" height="34" fill="rgb(16,253,253)" class="grid"/>
<text x="237.0" y="517.0" class="celltext" text-anchor="middle" fill="#111827">1</text>
<rect x="254" y="496" width="34" height="34" fill="rgb(249,250,251)" class="grid"/>
<rect x="288" y="496" width="34" height="34" fill="rgb(249,250,251)" class="grid"/>
<rect x="322" y="496" width="34" height="34" fill="rgb(249,250,251)" class="grid"/>
<rect x="356" y="496" width="34" height="34" fill="rgb(249,250,251)" class="grid"/>
<rect x="390" y="496" width="34" height="34" fill="rgb(249,250,251)" class="grid"/>
<rect x="424" y="496" width="34" height="34" fill="rgb(249,250,251)" class="grid"/>
<rect x="458" y="496" width="34" height="34" fill="rgb(249,250,251)" class="grid"/>
<rect x="492" y="496" width="34" height="34" fill="rgb(16,253,253)" class="grid"/>
<text x="509.0" y="517.0" class="celltext" text-anchor="middle" fill="#111827">1</text>
<rect x="526" y="496" width="34" height="34" fill="rgb(249,250,251)" class="grid"/>
<rect x="560" y="496" width="34" height="34" fill="rgb(249,250,251)" class="grid"/>
<rect x="594" y="496" width="34" height="34" fill="rgb(16,250,250)" class="grid"/>
<text x="611.0" y="517.0" class="celltext" text-anchor="middle" fill="#111827">3</text>
<rect x="628" y="496" width="34" height="34" fill="rgb(249,250,251)" class="grid"/>
<rect x="662" y="496" width="34" height="34" fill="rgb(249,250,251)" class="grid"/>
<rect x="696" y="496" width="34" height="34" fill="rgb(249,250,251)" class="grid"/>
<rect x="730" y="496" width="34" height="34" fill="rgb(249,250,251)" class="grid"/>
<rect x="764" y="496" width="34" height="34" fill="rgb(249,250,251)" class="grid"/>
<rect x="798" y="496" width="34" height="34" fill="rgb(249,250,251)" class="grid"/>
<rect x="220" y="530" width="34" height="34" fill="rgb(16,246,246)" class="grid"/>
<text x="237.0" y="551.0" class="celltext" text-anchor="middle" fill="#111827">6</text>
<rect x="254" y="530" width="34" height="34" fill="rgb(16,253,253)" class="grid"/>
<text x="271.0" y="551.0" class="celltext" text-anchor="middle" fill="#111827">1</text>
<rect x="288" y="530" width="34" height="34" fill="rgb(249,250,251)" class="grid"/>
<rect x="322" y="530" width="34" height="34" fill="rgb(16,239,239)" class="grid"/>
<text x="339.0" y="551.0" class="celltext" text-anchor="middle" fill="#111827">11</text>
<rect x="356" y="530" width="34" height="34" fill="rgb(16,253,253)" class="grid"/>
<text x="373.0" y="551.0" class="celltext" text-anchor="middle" fill="#111827">1</text>
<rect x="390" y="530" width="34" height="34" fill="rgb(249,250,251)" class="grid"/>
<rect x="424" y="530" width="34" height="34" fill="rgb(16,249,249)" class="grid"/>
<text x="441.0" y="551.0" class="celltext" text-anchor="middle" fill="#111827">4</text>
<rect x="458" y="530" width="34" height="34" fill="rgb(16,248,248)" class="grid"/>
<text x="475.0" y="551.0" class="celltext" text-anchor="middle" fill="#111827">5</text>
<rect x="492" y="530" width="34" height="34" fill="rgb(16,229,229)" class="grid"/>
<text x="509.0" y="551.0" class="celltext" text-anchor="middle" fill="#111827">18</text>
<rect x="526" y="530" width="34" height="34" fill="rgb(16,249,249)" class="grid"/>
<text x="543.0" y="551.0" class="celltext" text-anchor="middle" fill="#111827">4</text>
<rect x="560" y="530" width="34" height="34" fill="rgb(16,250,250)" class="grid"/>
<text x="577.0" y="551.0" class="celltext" text-anchor="middle" fill="#111827">3</text>
<rect x="594" y="530" width="34" height="34" fill="rgb(249,250,251)" class="grid"/>
<rect x="628" y="530" width="34" height="34" fill="rgb(16,220,220)" class="grid"/>
<text x="645.0" y="551.0" class="celltext" text-anchor="middle" fill="#111827">25</text>
<rect x="662" y="530" width="34" height="34" fill="rgb(16,249,249)" class="grid"/>
<text x="679.0" y="551.0" class="celltext" text-anchor="middle" fill="#111827">4</text>
<rect x="696" y="530" width="34" height="34" fill="rgb(249,250,251)" class="grid"/>
<rect x="730" y="530" width="34" height="34" fill="rgb(16,243,243)" class="grid"/>
<text x="747.0" y="551.0" class="celltext" text-anchor="middle" fill="#111827">8</text>
<rect x="764" y="530" width="34" height="34" fill="rgb(16,239,239)" class="grid"/>
<text x="781.0" y="551.0" class="celltext" text-anchor="middle" fill="#111827">11</text>
<rect x="798" y="530" width="34" height="34" fill="rgb(16,232,232)" class="grid"/>
<text x="815.0" y="551.0" class="celltext" text-anchor="middle" fill="#111827">16</text>
<rect x="220" y="564" width="34" height="34" fill="rgb(16,252,252)" class="grid"/>
<text x="237.0" y="585.0" class="celltext" text-anchor="middle" fill="#111827">2</text>
<rect x="254" y="564" width="34" height="34" fill="rgb(249,250,251)" class="grid"/>
<rect x="288" y="564" width="34" height="34" fill="rgb(16,252,252)" class="grid"/>
<text x="305.0" y="585.0" class="celltext" text-anchor="middle" fill="#111827">2</text>
<rect x="322" y="564" width="34" height="34" fill="rgb(16,243,243)" class="grid"/>
<text x="339.0" y="585.0" class="celltext" text-anchor="middle" fill="#111827">8</text>
<rect x="356" y="564" width="34" height="34" fill="rgb(249,250,251)" class="grid"/>
<rect x="390" y="564" width="34" height="34" fill="rgb(249,250,251)" class="grid"/>
<rect x="424" y="564" width="34" height="34" fill="rgb(16,253,253)" class="grid"/>
<text x="441.0" y="585.0" class="celltext" text-anchor="middle" fill="#111827">1</text>
<rect x="458" y="564" width="34" height="34" fill="rgb(16,252,252)" class="grid"/>
<text x="475.0" y="585.0" class="celltext" text-anchor="middle" fill="#111827">2</text>
<rect x="492" y="564" width="34" height="34" fill="rgb(16,252,252)" class="grid"/>
<text x="509.0" y="585.0" class="celltext" text-anchor="middle" fill="#111827">2</text>
<rect x="526" y="564" width="34" height="34" fill="rgb(16,252,252)" class="grid"/>
<text x="543.0" y="585.0" class="celltext" text-anchor="middle" fill="#111827">2</text>
<rect x="560" y="564" width="34" height="34" fill="rgb(249,250,251)" class="grid"/>
<rect x="594" y="564" width="34" height="34" fill="rgb(249,250,251)" class="grid"/>
<rect x="628" y="564" width="34" height="34" fill="rgb(16,249,249)" class="grid"/>
<text x="645.0" y="585.0" class="celltext" text-anchor="middle" fill="#111827">4</text>
<rect x="662" y="564" width="34" height="34" fill="rgb(16,250,250)" class="grid"/>
<text x="679.0" y="585.0" class="celltext" text-anchor="middle" fill="#111827">3</text>
<rect x="696" y="564" width="34" height="34" fill="rgb(16,253,253)" class="grid"/>
<text x="713.0" y="585.0" class="celltext" text-anchor="middle" fill="#111827">1</text>
<rect x="730" y="564" width="34" height="34" fill="rgb(16,249,249)" class="grid"/>
<text x="747.0" y="585.0" class="celltext" text-anchor="middle" fill="#111827">4</text>
<rect x="764" y="564" width="34" height="34" fill="rgb(16,253,253)" class="grid"/>
<text x="781.0" y="585.0" class="celltext" text-anchor="middle" fill="#111827">1</text>
<rect x="798" y="564" width="34" height="34" fill="rgb(16,253,253)" class="grid"/>
<text x="815.0" y="585.0" class="celltext" text-anchor="middle" fill="#111827">1</text>
<rect x="220" y="598" width="34" height="34" fill="rgb(16,252,252)" class="grid"/>
<text x="237.0" y="619.0" class="celltext" text-anchor="middle" fill="#111827">2</text>
<rect x="254" y="598" width="34" height="34" fill="rgb(249,250,251)" class="grid"/>
<rect x="288" y="598" width="34" height="34" fill="rgb(249,250,251)" class="grid"/>
<rect x="322" y="598" width="34" height="34" fill="rgb(16,252,252)" class="grid"/>
<text x="339.0" y="619.0" class="celltext" text-anchor="middle" fill="#111827">2</text>
<rect x="356" y="598" width="34" height="34" fill="rgb(249,250,251)" class="grid"/>
<rect x="390" y="598" width="34" height="34" fill="rgb(249,250,251)" class="grid"/>
<rect x="424" y="598" width="34" height="34" fill="rgb(249,250,251)" class="grid"/>
<rect x="458" y="598" width="34" height="34" fill="rgb(249,250,251)" class="grid"/>
<rect x="492" y="598" width="34" height="34" fill="rgb(16,253,253)" class="grid"/>
<text x="509.0" y="619.0" class="celltext" text-anchor="middle" fill="#111827">1</text>
<rect x="526" y="598" width="34" height="34" fill="rgb(249,250,251)" class="grid"/>
<rect x="560" y="598" width="34" height="34" fill="rgb(249,250,251)" class="grid"/>
<rect x="594" y="598" width="34" height="34" fill="rgb(249,250,251)" class="grid"/>
<rect x="628" y="598" width="34" height="34" fill="rgb(249,250,251)" class="grid"/>
<rect x="662" y="598" width="34" height="34" fill="rgb(16,253,253)" class="grid"/>
<text x="679.0" y="619.0" class="celltext" text-anchor="middle" fill="#111827">1</text>
<rect x="696" y="598" width="34" height="34" fill="rgb(16,201,201)" class="grid"/>
<text x="713.0" y="619.0" class="celltext" text-anchor="middle" fill="#111827">38</text>
<rect x="730" y="598" width="34" height="34" fill="rgb(249,250,251)" class="grid"/>
<rect x="764" y="598" width="34" height="34" fill="rgb(16,243,243)" class="grid"/>
<text x="781.0" y="619.0" class="celltext" text-anchor="middle" fill="#111827">8</text>
<rect x="798" y="598" width="34" height="34" fill="rgb(16,250,250)" class="grid"/>
<text x="815.0" y="619.0" class="celltext" text-anchor="middle" fill="#111827">3</text>
<rect x="220" y="632" width="34" height="34" fill="rgb(16,246,246)" class="grid"/>
<text x="237.0" y="653.0" class="celltext" text-anchor="middle" fill="#111827">6</text>
<rect x="254" y="632" width="34" height="34" fill="rgb(16,245,245)" class="grid"/>
<text x="271.0" y="653.0" class="celltext" text-anchor="middle" fill="#111827">7</text>
<rect x="288" y="632" width="34" height="34" fill="rgb(249,250,251)" class="grid"/>
<rect x="322" y="632" width="34" height="34" fill="rgb(16,241,241)" class="grid"/>
<text x="339.0" y="653.0" class="celltext" text-anchor="middle" fill="#111827">10</text>
<rect x="356" y="632" width="34" height="34" fill="rgb(16,250,250)" class="grid"/>
<text x="373.0" y="653.0" class="celltext" text-anchor="middle" fill="#111827">3</text>
<rect x="390" y="632" width="34" height="34" fill="rgb(16,253,253)" class="grid"/>
<text x="407.0" y="653.0" class="celltext" text-anchor="middle" fill="#111827">1</text>
<rect x="424" y="632" width="34" height="34" fill="rgb(249,250,251)" class="grid"/>
<rect x="458" y="632" width="34" height="34" fill="rgb(249,250,251)" class="grid"/>
<rect x="492" y="632" width="34" height="34" fill="rgb(16,243,243)" class="grid"/>
<text x="509.0" y="653.0" class="celltext" text-anchor="middle" fill="#111827">8</text>
<rect x="526" y="632" width="34" height="34" fill="rgb(249,250,251)" class="grid"/>
<rect x="560" y="632" width="34" height="34" fill="rgb(16,253,253)" class="grid"/>
<text x="577.0" y="653.0" class="celltext" text-anchor="middle" fill="#111827">1</text>
<rect x="594" y="632" width="34" height="34" fill="rgb(249,250,251)" class="grid"/>
<rect x="628" y="632" width="34" height="34" fill="rgb(16,243,243)" class="grid"/>
<text x="645.0" y="653.0" class="celltext" text-anchor="middle" fill="#111827">8</text>
<rect x="662" y="632" width="34" height="34" fill="rgb(16,249,249)" class="grid"/>
<text x="679.0" y="653.0" class="celltext" text-anchor="middle" fill="#111827">4</text>
<rect x="696" y="632" width="34" height="34" fill="rgb(249,250,251)" class="grid"/>
<rect x="730" y="632" width="34" height="34" fill="rgb(16,197,197)" class="grid"/>
<text x="747.0" y="653.0" class="celltext" text-anchor="middle" fill="#111827">41</text>
<rect x="764" y="632" width="34" height="34" fill="rgb(16,245,245)" class="grid"/>
<text x="781.0" y="653.0" class="celltext" text-anchor="middle" fill="#111827">7</text>
<rect x="798" y="632" width="34" height="34" fill="rgb(16,208,208)" class="grid"/>
<text x="815.0" y="653.0" class="celltext" text-anchor="middle" fill="#111827">33</text>
<rect x="220" y="666" width="34" height="34" fill="rgb(16,248,248)" class="grid"/>
<text x="237.0" y="687.0" class="celltext" text-anchor="middle" fill="#111827">5</text>
<rect x="254" y="666" width="34" height="34" fill="rgb(16,253,253)" class="grid"/>
<text x="271.0" y="687.0" class="celltext" text-anchor="middle" fill="#111827">1</text>
<rect x="288" y="666" width="34" height="34" fill="rgb(16,253,253)" class="grid"/>
<text x="305.0" y="687.0" class="celltext" text-anchor="middle" fill="#111827">1</text>
<rect x="322" y="666" width="34" height="34" fill="rgb(16,241,241)" class="grid"/>
<text x="339.0" y="687.0" class="celltext" text-anchor="middle" fill="#111827">10</text>
<rect x="356" y="666" width="34" height="34" fill="rgb(16,252,252)" class="grid"/>
<text x="373.0" y="687.0" class="celltext" text-anchor="middle" fill="#111827">2</text>
<rect x="390" y="666" width="34" height="34" fill="rgb(16,253,253)" class="grid"/>
<text x="407.0" y="687.0" class="celltext" text-anchor="middle" fill="#111827">1</text>
<rect x="424" y="666" width="34" height="34" fill="rgb(16,238,238)" class="grid"/>
<text x="441.0" y="687.0" class="celltext" text-anchor="middle" fill="#111827">12</text>
<rect x="458" y="666" width="34" height="34" fill="rgb(16,252,252)" class="grid"/>
<text x="475.0" y="687.0" class="celltext" text-anchor="middle" fill="#111827">2</text>
<rect x="492" y="666" width="34" height="34" fill="rgb(16,221,221)" class="grid"/>
<text x="509.0" y="687.0" class="celltext" text-anchor="middle" fill="#111827">24</text>
<rect x="526" y="666" width="34" height="34" fill="rgb(249,250,251)" class="grid"/>
<rect x="560" y="666" width="34" height="34" fill="rgb(249,250,251)" class="grid"/>
<rect x="594" y="666" width="34" height="34" fill="rgb(249,250,251)" class="grid"/>
<rect x="628" y="666" width="34" height="34" fill="rgb(16,239,239)" class="grid"/>
<text x="645.0" y="687.0" class="celltext" text-anchor="middle" fill="#111827">11</text>
<rect x="662" y="666" width="34" height="34" fill="rgb(16,253,253)" class="grid"/>
<text x="679.0" y="687.0" class="celltext" text-anchor="middle" fill="#111827">1</text>
<rect x="696" y="666" width="34" height="34" fill="rgb(16,243,243)" class="grid"/>
<text x="713.0" y="687.0" class="celltext" text-anchor="middle" fill="#111827">8</text>
<rect x="730" y="666" width="34" height="34" fill="rgb(16,245,245)" class="grid"/>
<text x="747.0" y="687.0" class="celltext" text-anchor="middle" fill="#111827">7</text>
<rect x="764" y="666" width="34" height="34" fill="rgb(16,235,235)" class="grid"/>
<text x="781.0" y="687.0" class="celltext" text-anchor="middle" fill="#111827">14</text>
<rect x="798" y="666" width="34" height="34" fill="rgb(16,225,225)" class="grid"/>
<text x="815.0" y="687.0" class="celltext" text-anchor="middle" fill="#111827">21</text>
<rect x="220" y="700" width="34" height="34" fill="rgb(16,221,221)" class="grid"/>
<text x="237.0" y="721.0" class="celltext" text-anchor="middle" fill="#111827">24</text>
<rect x="254" y="700" width="34" height="34" fill="rgb(16,242,242)" class="grid"/>
<text x="271.0" y="721.0" class="celltext" text-anchor="middle" fill="#111827">9</text>
<rect x="288" y="700" width="34" height="34" fill="rgb(16,252,252)" class="grid"/>
<text x="305.0" y="721.0" class="celltext" text-anchor="middle" fill="#111827">2</text>
<rect x="322" y="700" width="34" height="34" fill="rgb(16,228,228)" class="grid"/>
<text x="339.0" y="721.0" class="celltext" text-anchor="middle" fill="#111827">19</text>
<rect x="356" y="700" width="34" height="34" fill="rgb(16,249,249)" class="grid"/>
<text x="373.0" y="721.0" class="celltext" text-anchor="middle" fill="#111827">4</text>
<rect x="390" y="700" width="34" height="34" fill="rgb(16,246,246)" class="grid"/>
<text x="407.0" y="721.0" class="celltext" text-anchor="middle" fill="#111827">6</text>
<rect x="424" y="700" width="34" height="34" fill="rgb(16,243,243)" class="grid"/>
<text x="441.0" y="721.0" class="celltext" text-anchor="middle" fill="#111827">8</text>
<rect x="458" y="700" width="34" height="34" fill="rgb(16,246,246)" class="grid"/>
<text x="475.0" y="721.0" class="celltext" text-anchor="middle" fill="#111827">6</text>
<rect x="492" y="700" width="34" height="34" fill="rgb(16,197,197)" class="grid"/>
<text x="509.0" y="721.0" class="celltext" text-anchor="middle" fill="#111827">41</text>
<rect x="526" y="700" width="34" height="34" fill="rgb(16,246,246)" class="grid"/>
<text x="543.0" y="721.0" class="celltext" text-anchor="middle" fill="#111827">6</text>
<rect x="560" y="700" width="34" height="34" fill="rgb(16,252,252)" class="grid"/>
<text x="577.0" y="721.0" class="celltext" text-anchor="middle" fill="#111827">2</text>
<rect x="594" y="700" width="34" height="34" fill="rgb(249,250,251)" class="grid"/>
<rect x="628" y="700" width="34" height="34" fill="rgb(16,232,232)" class="grid"/>
<text x="645.0" y="721.0" class="celltext" text-anchor="middle" fill="#111827">16</text>
<rect x="662" y="700" width="34" height="34" fill="rgb(16,253,253)" class="grid"/>
<text x="679.0" y="721.0" class="celltext" text-anchor="middle" fill="#111827">1</text>
<rect x="696" y="700" width="34" height="34" fill="rgb(16,250,250)" class="grid"/>
<text x="713.0" y="721.0" class="celltext" text-anchor="middle" fill="#111827">3</text>
<rect x="730" y="700" width="34" height="34" fill="rgb(16,208,208)" class="grid"/>
<text x="747.0" y="721.0" class="celltext" text-anchor="middle" fill="#111827">33</text>
<rect x="764" y="700" width="34" height="34" fill="rgb(16,225,225)" class="grid"/>
<text x="781.0" y="721.0" class="celltext" text-anchor="middle" fill="#111827">21</text>
<rect x="798" y="700" width="34" height="34" fill="rgb(249,250,251)" class="grid"/>
</svg>